<?xml version="1.0" encoding="UTF-8" standalone="no"?>
<svg width="600px" height="160px" viewBox="0 0 600 160" version="1.1" xmlns="http://www.w3.org/2000/svg" xmlns:xlink="http://www.w3.org/1999/xlink">
    <!-- Generator: Sketch 3.6.1 (26313) - http://www.bohemiancoding.com/sketch -->
    <title>cabbage 2</title>
    <desc>Created with Sketch.</desc>
    <defs></defs>
    <g id="Page-1" stroke="none" stroke-width="1" fill="none" fill-rule="evenodd">
        <g id="outline" transform="translate(105.000000, 14.000000)" fill="#FFFFFF">
            <path d="M80.3554688,81 C80.3554688,83.4739707 78.9882949,84.7109375 76.2539063,84.7109375 L5.94140625,84.8085938 C5.5507793,84.8085938 5.25781348,84.645835 5.0625,84.3203125 L2.42578125,81 C2.16536328,80.6744775 2.2304668,80.5117188 2.62109375,80.5117188 L21.859375,80.5117188 L28.5976563,51.0195312 L17.2695313,51.0195312 C16.8789043,51.0195312 16.5859385,50.8567725 16.390625,50.53125 L13.9492188,47.2109375 C13.8190098,47.0807285 13.7539063,46.9830732 13.7539063,46.9179688 C13.8190107,46.8528643 13.9492178,46.8203125 14.1445313,46.8203125 L29.5742188,46.8203125 L36.0195313,18.5976562 L14.2421875,18.5976562 C13.8515605,18.5976562 13.526043,18.4674492 13.265625,18.2070312 L10.7265625,14.8867188 C10.4661445,14.5611963 10.531248,14.3984375 10.921875,14.3984375 L60.140625,14.3984375 C61.3125059,14.3984375 62.3867139,14.1705752 63.3632813,13.7148438 C66.8138193,12.1523359 68.8971318,11.3710938 69.6132813,11.3710938 C72.3476699,11.3710938 73.7148438,12.542957 73.7148438,14.8867188 C73.7148438,17.3606895 72.3476699,18.5976562 69.6132813,18.5976562 L46.1757813,18.5976562 L39.7304688,46.8203125 L61.8984375,46.8203125 C63.8515723,46.8203125 64.828125,47.7643135 64.828125,49.6523438 L64.828125,80.5117188 L66.8789063,80.5117188 C68.1158916,80.5117188 69.1900996,80.3164082 70.1015625,79.9257812 C73.6823096,78.3632734 75.7656221,77.5820312 76.3515625,77.5820312 C79.0208467,77.5820312 80.3554688,78.7213428 80.3554688,81 L80.3554688,81 Z M54.8671875,80.5117188 L54.8671875,52.484375 C54.8671875,51.5078076 54.3789111,51.0195312 53.4023438,51.0195312 L38.7539063,51.0195312 L32.015625,80.5117188 L54.8671875,80.5117188 Z M144.652344,46.8652344 C143.363275,46.9238284 135.453198,46.953125 120.921875,46.953125 L120.921875,85.625 C120.921875,87.3242272 120.072274,88.1738281 118.373047,88.1738281 L113.451172,88.1738281 C111.751945,88.1738281 110.902344,87.3242272 110.902344,85.625 L110.902344,46.953125 L85.9414062,46.953125 C85.589842,46.953125 85.3261728,46.8066421 85.1503906,46.5136719 L82.8652344,43.5253906 C82.8066403,43.4082025 82.7773438,43.3203128 82.7773438,43.2617188 C82.8359378,43.1445307 82.9531241,43.0859375 83.1289062,43.0859375 L110.902344,43.0859375 L110.902344,14.9609375 C110.902344,14.6679673 111.136716,14.4335946 111.605469,14.2578125 L119.603516,14.5214844 C120.482426,14.5214844 120.921875,14.9609331 120.921875,15.8398438 L120.921875,43.0859375 L136.126953,43.0859375 C137.24024,43.0859375 138.207027,42.910158 139.027344,42.5585938 C142.250016,41.1523367 144.124997,40.4492188 144.652344,40.4492188 C147.113294,40.4492188 148.34375,41.4745991 148.34375,43.5253906 C148.34375,45.6347762 147.113294,46.7480463 144.652344,46.8652344 Z M224.503906,21.1367188 C224.503906,23.024749 223.559905,23.96875 221.671875,23.96875 L217.375,23.96875 C215.48697,23.96875 214.542969,23.024749 214.542969,21.1367188 L214.542969,20.453125 L177.238281,20.453125 L177.238281,21.1367188 C177.238281,23.024749 176.29428,23.96875 174.40625,23.96875 L170.109375,23.96875 C168.221345,23.96875 167.277344,23.024749 167.277344,21.1367188 L167.277344,6.48828125 C167.277344,5.90234082 167.57031,5.609375 168.15625,5.609375 L175.773438,5.90234375 C176.750005,5.96744824 177.238281,6.45572461 177.238281,7.3671875 L177.238281,16.2539062 L190.324219,16.2539062 L190.324219,4.828125 C190.324219,4.24218457 190.617185,3.94921875 191.203125,3.94921875 L198.820312,4.14453125 C199.79688,4.14453125 200.285156,4.63280762 200.285156,5.609375 L200.1875,16.2539062 L214.542969,16.2539062 L214.542969,6.48828125 C214.542969,5.96744531 214.835935,5.70703125 215.421875,5.70703125 L223.039062,5.90234375 C224.01563,5.90234375 224.503906,6.39062012 224.503906,7.3671875 L224.503906,21.1367188 Z M238.371094,75.3359375 C238.045571,78.0052217 235.864604,79.4700508 231.828125,79.7304688 C227.856751,79.9908867 224.113299,79.9908867 220.597656,79.7304688 C217.537745,79.5351553 216.040364,77.8099121 216.105469,74.5546875 C216.170573,71.8202988 216.170573,58.7019404 216.105469,35.1992188 C216.105469,34.2877559 215.682296,33.8320312 214.835938,33.8320312 L176.847656,33.8320312 C176.001298,33.8320312 175.578125,34.2552041 175.578125,35.1015625 C175.578125,37.7057422 175.48047,42.1978848 175.285156,48.578125 C174.959634,56.3906641 173.559908,62.6406016 171.085938,67.328125 C167.440086,74.2292012 160.604217,80.5767939 150.578125,86.3710938 C150.122394,86.6315117 149.731772,86.6315117 149.40625,86.3710938 C148.950519,86.0455713 148.917967,85.687502 149.308594,85.296875 C155.558625,78.9817393 159.871733,73.106147 162.248047,67.6699219 C164.624361,62.2336968 165.942707,55.1862412 166.203125,46.5273438 C166.203125,46.2018213 166.235677,41.3841611 166.300781,32.0742188 C166.300781,30.381502 167.147127,29.5351562 168.839844,29.5351562 L222.550781,29.5351562 C224.308603,29.5351562 225.1875,30.381502 225.1875,32.0742188 L225.089844,69.0859375 C225.089844,69.8020869 225.415361,70.192708 226.066406,70.2578125 L227.53125,70.2578125 C227.986981,70.2578125 228.572913,69.7044326 229.289063,68.5976562 L235.929688,58.4414062 C236.25521,57.9205703 236.678383,57.822915 237.199219,58.1484375 C237.589846,58.47396 237.687501,58.8971328 237.492188,59.4179688 L234.464844,68.3046875 C233.944008,69.8020908 234.236974,70.6484365 235.34375,70.84375 C237.687512,71.2994814 238.696616,72.7968623 238.371094,75.3359375 L238.371094,75.3359375 Z M212.882813,86.1757813 C212.687499,89.2356924 211.255222,90.8307285 208.585938,90.9609375 C206.046862,91.0911465 204.777344,89.8541797 204.777344,87.25 C204.777344,87.380209 204.809896,86.9570361 204.875,85.9804688 C204.875,85.7851553 204.907552,85.2968789 204.972656,84.515625 C196.704386,86.2083418 188.306032,87.7057227 179.777344,89.0078125 C178.735672,89.1380215 178.14974,88.7799521 178.019531,87.9335938 L176.945313,81.0976563 C176.880208,80.7721338 177.042967,80.609375 177.433594,80.609375 L190.8125,80.5117188 L190.8125,72.3085938 L185.636719,72.3085938 C185.441405,73.8059971 184.59506,74.5546875 183.097656,74.5546875 L180.460938,74.5546875 C178.768221,74.5546875 177.921875,73.7083418 177.921875,72.015625 L177.824219,58.9296875 C177.824219,57.2369707 178.703116,56.390625 180.460938,56.390625 L190.8125,56.390625 L190.8125,50.6289063 C187.752589,51.4752646 184.009137,52.3541621 179.582031,53.265625 C178.996091,53.3307295 178.572918,53.1354189 178.3125,52.6796875 C178.117187,52.2239561 178.247394,51.8658867 178.703125,51.6054688 C187.687545,46.5273184 195.01169,41.3841406 200.675781,36.1757813 C201.066408,35.7851543 201.424478,35.7526025 201.75,36.078125 L207.121094,41.6445313 C207.64193,42.2955762 207.609378,42.8164043 207.023438,43.2070313 C204.549467,44.899748 201.945326,46.3645771 199.210938,47.6015625 L199.210938,56.390625 L209.953125,56.390625 C211.645842,56.390625 212.492188,57.2369707 212.492188,58.9296875 L212.492188,72.015625 C212.492188,73.7083418 211.645842,74.5546875 209.953125,74.5546875 L207.121094,74.5546875 C205.62369,74.5546875 204.777345,73.8059971 204.582031,72.3085938 L199.210938,72.3085938 L199.210938,80.4140625 L204.679688,80.3164063 C204.223956,78.8841074 203.214852,77.3541748 201.652344,75.7265625 C201.587239,75.4661445 201.684895,75.2382822 201.945313,75.0429688 C204.484388,75.4335957 206.697907,76.2473896 208.585938,77.484375 C211.710953,79.5026143 213.14323,82.3997207 212.882813,86.1757813 L212.882813,86.1757813 Z M204.582031,68.5 L204.582031,61.46875 C204.582031,60.6223916 204.158858,60.1992188 203.3125,60.1992188 L199.210938,60.1992188 L199.210938,68.5 L204.582031,68.5 Z M190.8125,60.1992188 L187.003906,60.1992188 C186.092443,60.1992188 185.636719,60.6223916 185.636719,61.46875 L185.734375,68.5 L190.8125,68.5 L190.8125,60.1992188 Z M318.722656,30.3164062 C318.722656,31.9440186 317.778655,32.7578125 315.890625,32.7578125 L313.15625,32.7578125 C311.26822,32.7578125 310.324219,31.9114668 310.324219,30.21875 L310.324219,29.828125 L273.898438,29.828125 L273.898438,30.1210938 C273.898438,32.009124 272.986988,32.953125 271.164062,32.953125 L268.234375,32.953125 C266.411449,32.953125 265.5,31.9765723 265.5,30.0234375 L265.597656,9.7109375 C265.597656,7.88801172 266.509105,6.9765625 268.332031,6.9765625 L280.246094,6.9765625 L280.246094,0.82421875 C280.246094,0.303382812 280.53906,0.04296875 281.125,0.04296875 L287.375,0.23828125 C288.351567,0.23828125 288.839844,0.726557617 288.839844,1.703125 L288.839844,6.9765625 L295.1875,6.9765625 L295.1875,0.82421875 C295.1875,0.303382812 295.447914,0.04296875 295.96875,0.04296875 L302.609375,0.23828125 C303.520838,0.23828125 303.976562,0.726557617 303.976562,1.703125 L303.976562,6.9765625 L315.890625,6.9765625 C317.778655,6.9765625 318.722656,7.88801172 318.722656,9.7109375 L318.722656,30.3164062 Z M310.324219,16.2539062 L310.324219,12.5429688 C310.324219,11.6315059 309.835942,11.1757812 308.859375,11.1757812 L303.976562,11.1757812 L303.976562,16.2539062 L310.324219,16.2539062 Z M310.324219,25.6289062 L310.324219,20.453125 L303.976562,20.453125 L303.976562,25.6289062 L310.324219,25.6289062 Z M295.1875,16.2539062 L295.1875,11.1757812 L288.839844,11.1757812 L288.839844,16.2539062 L295.1875,16.2539062 Z M295.1875,25.6289062 L295.1875,20.453125 L288.839844,20.453125 L288.839844,25.6289062 L295.1875,25.6289062 Z M280.246094,16.2539062 L280.246094,11.1757812 L275.363281,11.1757812 C274.386714,11.1757812 273.898438,11.6315059 273.898438,12.5429688 L273.898438,16.2539062 L280.246094,16.2539062 Z M280.246094,25.6289062 L280.246094,20.453125 L273.898438,20.453125 L273.898438,25.6289062 L280.246094,25.6289062 Z M318.722656,49.2617188 C318.722656,51.540376 317.485689,52.6796875 315.011719,52.6796875 L277.804688,52.6796875 C277.479165,52.6796875 277.218751,52.5494805 277.023438,52.2890625 L274.777344,49.1640625 C274.58203,48.9036445 274.647134,48.7734375 274.972656,48.7734375 L306.320312,48.7734375 C307.427089,48.7734375 308.403642,48.578127 309.25,48.1875 C312.505225,46.7552012 314.425778,46.0390625 315.011719,46.0390625 C317.485689,46.0390625 318.722656,47.1132705 318.722656,49.2617188 L318.722656,49.2617188 Z M322.628906,60.1992188 C322.563802,62.477876 321.22918,63.6171875 318.625,63.6171875 L273.996094,63.6171875 C273.605467,63.6171875 273.312501,63.4869805 273.117188,63.2265625 L270.871094,60.1992188 C270.805989,60.0690098 270.773438,59.9713545 270.773438,59.90625 C270.773438,59.776041 270.871093,59.7109375 271.066406,59.7109375 L310.226562,59.7109375 C311.398443,59.7109375 313.351549,59.0273506 316.085938,57.6601563 C316.9974,57.2044248 317.843746,56.9765625 318.625,56.9765625 C321.294284,56.9765625 322.628906,58.0507705 322.628906,60.1992188 L322.628906,60.1992188 Z M325.070312,81 C322.85676,82.7578213 321.229172,84.3854092 320.1875,85.8828125 C319.927082,86.208335 319.308599,87.4778535 318.332031,89.6914062 C317.811195,90.4726602 317.16016,90.6354189 316.378906,90.1796875 C307.5898,85.4270596 300.786482,77.8425 295.96875,67.4257812 C295.578123,66.6445273 295.773434,65.9934922 296.554688,65.4726562 C297.335941,64.9518203 298.019528,65.0169238 298.605469,65.6679688 C302.186216,69.6393428 305.311185,72.4062422 307.980469,73.96875 L311.203125,65.375 C311.398438,64.8541641 311.78906,64.6914053 312.375,64.8867188 L319.601562,67.71875 C320.122398,67.979168 320.382812,68.4023408 320.382812,68.9882812 C320.382812,69.6393262 320.122398,70.1276025 319.601562,70.453125 C318.039055,71.6901104 315.434914,73.5130088 311.789062,75.921875 C313.416675,76.7031289 317.713507,78.1028545 324.679688,80.1210938 C325.070314,80.2513027 325.233073,80.4466133 325.167969,80.7070312 C325.167969,80.8372402 325.135417,80.9348955 325.070312,81 L325.070312,81 Z M323.214844,38.3242188 C323.214844,40.602876 321.977877,41.7421875 319.503906,41.7421875 L269.796875,41.8398438 C268.885412,41.8398438 268.429688,42.2630166 268.429688,43.109375 L268.429688,47.5039062 C268.429688,47.9596377 268.397136,48.6106729 268.332031,49.4570312 C268.46224,56.5534209 267.453136,62.3476338 265.304688,66.8398438 C261.919254,73.8711289 255.474006,79.8932041 245.96875,84.90625 C245.447914,85.166668 245.024741,85.0690127 244.699219,84.6132812 C244.243487,84.0924453 244.243487,83.6041689 244.699219,83.1484375 C249.777369,78.1353916 253.423166,72.9271104 255.636719,67.5234375 C257.850271,62.1197646 258.957031,55.8372754 258.957031,48.6757812 L258.957031,40.5703125 C258.957031,38.8124912 259.803377,37.9335938 261.496094,37.9335938 L310.8125,37.9335938 C311.919276,37.9335938 312.895829,37.7382832 313.742188,37.3476562 C316.997412,35.9153574 318.917966,35.1992188 319.503906,35.1992188 C321.977877,35.1992188 323.214844,36.240875 323.214844,38.3242188 L323.214844,38.3242188 Z M300.460938,81 C300.526042,81.6510449 300.102869,82.171873 299.191406,82.5625 C291.964808,85.8177246 284.152386,88.6171758 275.753906,90.9609375 C274.907548,91.2213555 274.38672,90.9609414 274.191406,90.1796875 L272.238281,82.3671875 C272.108072,81.7812471 273.084625,81.4231777 275.167969,81.2929688 L278.976563,81.2929688 L278.976563,66.546875 C278.976563,65.9609346 279.269528,65.6679688 279.855469,65.6679688 L286.691406,65.8632812 C287.667974,65.8632812 288.15625,66.3515576 288.15625,67.328125 L288.15625,80.8046875 L298.898438,80.0234375 C299.8099,79.958333 300.330729,80.2838506 300.460938,81 L300.460938,81 Z M415.777344,10.9804688 L415.679688,84.8085938 C415.679688,86.696624 414.735687,87.640625 412.847656,87.640625 L408.648438,87.640625 C406.760407,87.640625 405.816406,86.7942793 405.816406,85.1015625 L405.816406,83.5390625 L356.695312,83.5390625 L356.695312,84.90625 C356.695312,86.7942803 355.71876,87.7382812 353.765625,87.7382812 L349.566406,87.7382812 C347.678376,87.7382812 346.734375,86.7617285 346.734375,84.8085938 L346.929688,10.9804688 C346.929688,9.09243848 347.873688,8.1484375 349.761719,8.1484375 L412.945312,8.1484375 C414.833343,8.1484375 415.777344,9.09243848 415.777344,10.9804688 L415.777344,10.9804688 Z M405.816406,14.3984375 C405.816406,13.0963477 405.295578,12.4453125 404.253906,12.4453125 L358.453125,12.4453125 C357.346349,12.4453125 356.792969,13.0963477 356.792969,14.3984375 L356.695312,79.3398438 L405.816406,79.3398438 L405.816406,14.3984375 Z M401.617188,33.6367188 C401.617188,35.7200625 400.380221,36.7617188 397.90625,36.7617188 L363.53125,36.859375 C363.205728,36.859375 362.945313,36.729168 362.75,36.46875 L360.601562,33.5390625 C360.601562,33.4088535 360.666666,33.3111982 360.796875,33.2460938 L376.324219,33.2460938 L376.324219,27.7773438 L366.460938,27.7773438 C366.135415,27.7773438 365.875001,27.6471367 365.679688,27.3867188 L363.628906,24.5546875 C363.628906,24.4244785 363.69401,24.2942715 363.824219,24.1640625 L376.324219,24.1640625 L376.324219,17.5234375 C376.324219,16.8723926 376.584633,16.6119785 377.105469,16.7421875 L383.648438,17.0351563 C384.5599,17.1002607 385.015625,17.5885371 385.015625,18.5 L385.015625,24.1640625 L386.773438,24.1640625 C388.140632,24.0338535 389.084633,23.8710947 389.605469,23.6757813 C392.274753,22.2434824 394.032548,21.5273438 394.878906,21.5273438 C397.287772,21.5273438 398.492188,22.569 398.492188,24.6523438 C398.492188,26.670583 397.320324,27.7122393 394.976562,27.7773438 L385.015625,27.7773438 L385.015625,33.2460938 L389.898438,33.2460938 C391.200527,33.1158848 392.144528,32.9205742 392.730469,32.6601563 C395.855484,31.2929619 397.678383,30.609375 398.199219,30.609375 C400.477876,30.609375 401.617188,31.6184795 401.617188,33.6367188 L401.617188,33.6367188 Z M403.472656,56.8789062 C401.389312,59.0273545 398.589861,61.110667 395.074219,63.1289062 C394.748696,63.3242197 394.45573,63.3567715 394.195312,63.2265625 C393.804686,63.031249 393.674479,62.7382832 393.804688,62.3476562 C394.911464,59.5481631 395.855465,56.6836084 396.636719,53.7539062 C396.701823,53.2981748 396.994789,53.1679678 397.515625,53.3632812 L403.179688,55.3164062 C403.50521,55.3815107 403.700521,55.609373 403.765625,56 C403.830729,56.3255225 403.733074,56.6184883 403.472656,56.8789062 L403.472656,56.8789062 Z M401.324219,69.5742187 C399.761711,70.4205771 398.361985,71.5598887 397.125,72.9921875 C396.734373,73.4479189 396.246097,74.1966094 395.660156,75.2382812 C395.464843,75.4335947 395.269532,75.53125 395.074219,75.53125 C394.878905,75.53125 394.683595,75.4661465 394.488281,75.3359375 C390.451803,71.559877 387.587248,66.6771133 385.894531,60.6875 C385.699218,59.9713506 385.829425,59.4830742 386.285156,59.2226562 C386.805992,58.8971338 387.261717,58.9947891 387.652344,59.515625 C390.321628,62.7057451 394.846322,65.6354033 401.226563,68.3046875 C401.942712,68.63021 401.975264,69.0533828 401.324219,69.5742187 L401.324219,69.5742187 Z M394.683594,54.5351562 C394.683594,56.358082 393.772145,57.2695312 391.949219,57.2695312 L384.332031,57.2695312 L384.332031,74.5546875 C384.332031,75.5963594 383.843755,76.1171875 382.867188,76.1171875 L377.496094,76.1171875 C376.584631,76.2473965 376.128906,75.8242236 376.128906,74.8476562 L376.128906,64.984375 C372.41795,68.5651221 366.428427,71.527332 358.160156,73.8710938 C357.769529,74.0013027 357.476563,73.8710957 357.28125,73.4804688 C357.151041,73.0247373 357.281248,72.666668 357.671875,72.40625 C365.940146,67.1327861 371.506496,62.0872637 374.371094,57.2695312 L369.195312,57.2695312 C367.372387,57.2695312 366.460938,56.358082 366.460938,54.5351562 L366.460938,44.28125 C366.460938,42.4583242 367.372387,41.546875 369.195312,41.546875 L392.046875,41.546875 C393.804696,41.546875 394.683594,42.4583242 394.683594,44.28125 L394.683594,54.5351562 Z M385.992188,52.2890625 L385.992188,46.4296875 C385.992188,45.5182246 385.536463,45.0625 384.625,45.0625 L376.519531,45.0625 C375.673173,45.0625 375.25,45.5182246 375.25,46.4296875 L375.25,52.2890625 C375.25,53.2005254 375.673173,53.65625 376.519531,53.65625 L384.625,53.65625 C385.536463,53.65625 385.992188,53.2005254 385.992188,52.2890625 L385.992188,52.2890625 Z" id="五十嵐農園"></path>
            <path d="M26.1875,124.34375 C25.2499953,124.843752 24.5625022,125.364581 24.125,125.90625 C23.9791659,126.156251 23.7708347,126.531248 23.5,127.03125 C23.3541659,127.302085 23.1458347,127.343751 22.875,127.15625 C20.3958209,125.510408 18.3750078,123.166682 16.8125,120.125 L16.8125,127.9375 C16.8125,128.54167 16.5104197,128.84375 15.90625,128.84375 L14.53125,128.84375 C13.9270803,128.84375 13.625,128.54167 13.625,127.9375 L13.625,122.125 C11.1249875,124.72918 6.92711281,126.66666 1.03125,127.9375 C0.8645825,127.979167 0.750000312,127.916668 0.6875,127.75 C0.60416625,127.562499 0.6458325,127.427084 0.8125,127.34375 C6.68752937,124.572903 10.6354066,121.562516 12.65625,118.3125 L10.59375,118.3125 C10.5729166,118.895836 10.2708362,119.1875 9.6875,119.1875 L8.3125,119.1875 C7.70833031,119.1875 7.40625,118.88542 7.40625,118.28125 L7.40625,110.03125 C7.40625,109.42708 7.70833031,109.125 8.3125,109.125 L13.625,109.125 L13.625,107 L5.65625,107 C5.53124937,107 5.43750031,106.947917 5.375,106.84375 L4.59375,105.6875 C4.53124969,105.583333 4.55208281,105.53125 4.65625,105.53125 L13.625,105.53125 L13.625,101.875 C13.625,101.687499 13.7187491,101.59375 13.90625,101.59375 L16.34375,101.71875 C16.6562516,101.739583 16.8125,101.895832 16.8125,102.1875 L16.8125,105.5625 L21.125,105.5625 C21.3750012,105.5625 21.666665,105.489584 22,105.34375 C22.9791716,104.906248 23.7083309,104.6875 24.1875,104.6875 C25.0416709,104.6875 25.46875,105.05208 25.46875,105.78125 C25.46875,106.593754 25.0312544,107 24.15625,107 L16.8125,107 L16.8125,109.125 L22,109.125 C22.6041697,109.125 22.90625,109.42708 22.90625,110.03125 L22.90625,118.28125 C22.90625,118.88542 22.6041697,119.1875 22,119.1875 L20.625,119.1875 C20.0416637,119.1875 19.7395834,118.895836 19.71875,118.3125 L16.96875,118.3125 C18.5937581,120.31251 21.6458109,122.197908 26.125,123.96875 C26.2916675,124.03125 26.3125006,124.156249 26.1875,124.34375 L26.1875,124.34375 Z M19.71875,110.9375 C19.71875,110.645832 19.5729181,110.5 19.28125,110.5 L16.8125,110.5 L16.8125,113.03125 L19.71875,113.03125 L19.71875,110.9375 Z M19.71875,114.375 L16.8125,114.375 L16.8125,116.96875 L19.71875,116.96875 L19.71875,114.375 Z M13.625,113.03125 L13.625,110.5 L11.03125,110.5 C10.7395819,110.5 10.59375,110.645832 10.59375,110.9375 L10.59375,113.03125 L13.625,113.03125 Z M13.625,116.96875 L13.625,114.375 L10.59375,114.375 L10.59375,116.96875 L13.625,116.96875 Z M56.596856,105.5625 C56.596856,106.375004 56.1489438,106.78125 55.253106,106.78125 L35.940606,106.78125 C35.8156054,106.78125 35.7218563,106.729167 35.659356,106.625 L34.878106,105.5625 C34.8364391,105.520833 34.815606,105.489583 34.815606,105.46875 C34.8364394,105.447917 34.8781057,105.4375 34.940606,105.4375 L44.378106,105.4375 L44.409356,101.25 C44.409356,101.062499 44.4926885,100.979167 44.659356,101 L47.128106,101.1875 C47.4197741,101.208333 47.565606,101.364582 47.565606,101.65625 L47.534356,105.4375 L52.253106,105.4375 C52.6281079,105.4375 52.9718544,105.364584 53.284356,105.21875 C54.3885282,104.718748 55.0551882,104.46875 55.284356,104.46875 C56.1593604,104.46875 56.596856,104.83333 56.596856,105.5625 L56.596856,105.5625 Z M55.846856,123.78125 C55.8676894,124.468753 55.7010244,125.031248 55.346856,125.46875 C54.9926876,125.906252 54.4718594,126.125 53.784356,126.125 C52.8468513,126.104167 52.3989391,125.593755 52.440606,124.59375 C52.4614394,123.739579 52.2531082,123.062502 51.815606,122.5625 C51.5031044,122.208332 50.8676941,121.791669 49.909356,121.3125 C49.7010216,121.208333 49.7322713,121.125 50.003106,121.0625 C50.7322763,120.874999 51.4093529,120.78125 52.034356,120.78125 C53.0760279,120.78125 53.9406026,121.020831 54.628106,121.5 C55.4197766,122.020836 55.8260226,122.781245 55.846856,123.78125 L55.846856,123.78125 Z M52.878106,111.71875 L52.878106,118.78125 C52.878106,119.38542 52.5760257,119.6875 51.971856,119.6875 L50.596856,119.6875 C50.0968535,119.6875 49.8051898,119.437502 49.721856,118.9375 L47.846856,118.9375 L47.846856,125.03125 C47.846856,126.135422 47.4926929,127.026038 46.784356,127.703125 C46.0760191,128.380212 45.1697782,128.708333 44.065606,128.6875 C43.6072704,128.6875 43.2947735,128.510418 43.128106,128.15625 C42.8781048,127.656248 42.7218563,127.385417 42.659356,127.34375 C42.5343554,127.239583 42.2635248,127.177083 41.846856,127.15625 L39.159356,127.0625 C38.9718551,127.0625 38.8468563,126.968751 38.784356,126.78125 C38.7426891,126.614582 38.8156051,126.510417 39.003106,126.46875 L43.721856,125.59375 C44.2218585,125.510416 44.471856,125.156253 44.471856,124.53125 L44.471856,118.9375 L42.003106,118.9375 C41.8989388,119.437502 41.5968585,119.6875 41.096856,119.6875 L39.753106,119.6875 C39.1489363,119.6875 38.846856,119.375003 38.846856,118.75 L38.815606,111.6875 C38.815606,111.08333 39.1176863,110.78125 39.721856,110.78125 L51.971856,110.78125 C52.5760257,110.78125 52.878106,111.093747 52.878106,111.71875 L52.878106,111.71875 Z M49.690606,112.625 C49.690606,112.333332 49.5447741,112.1875 49.253106,112.1875 L42.440606,112.15625 C42.1489379,112.15625 42.003106,112.302082 42.003106,112.59375 L42.003106,117.5625 L49.690606,117.5625 L49.690606,112.625 Z M41.003106,122.53125 C39.5030985,124.343759 36.9406241,125.802078 33.315606,126.90625 C33.1697719,126.947917 33.0551898,126.906251 32.971856,126.78125 C32.8676888,126.656249 32.8781054,126.541667 33.003106,126.4375 C34.9822826,124.666658 36.6905988,122.687511 38.128106,120.5 C38.2322732,120.354166 38.3572719,120.322916 38.503106,120.40625 L40.878106,121.90625 C41.1697741,122.093751 41.2114404,122.302082 41.003106,122.53125 L41.003106,122.53125 Z M87.532462,122.75 C86.9074589,122.8125 86.5428792,122.572919 86.438712,122.03125 C86.3553783,121.572914 86.2720458,121.291667 86.188712,121.1875 C86.0220445,120.979166 85.7407973,120.864583 85.344962,120.84375 L83.626212,120.78125 C83.4803779,120.760417 83.3970454,120.677084 83.376212,120.53125 C83.3553786,120.406249 83.4178779,120.333333 83.563712,120.3125 L86.032462,119.6875 C86.6782986,119.520832 87.001212,119.197919 87.001212,118.71875 C87.001212,116.906241 86.3033023,115.145842 84.907462,113.4375 C84.574127,113.020831 84.4699614,112.593752 84.594962,112.15625 C85.3032989,109.843738 85.7720442,107.625011 86.001212,105.5 C86.0428789,105.208332 85.9074636,105.0625 85.594962,105.0625 L83.657462,105.0625 C83.3449604,105.0625 83.188712,105.218748 83.188712,105.53125 L83.188712,127.90625 C83.188712,128.51042 82.8866317,128.8125 82.282462,128.8125 L80.938712,128.8125 C80.3345423,128.8125 80.032462,128.51042 80.032462,127.90625 L80.032462,104.625 C80.032462,104.02083 80.3345423,103.71875 80.938712,103.71875 L88.751212,103.71875 C89.3762151,103.71875 89.6366292,104.010414 89.532462,104.59375 C89.2824608,105.98959 88.4074695,108.510398 86.907462,112.15625 C86.8657951,112.239584 86.9803773,112.427082 87.251212,112.71875 C89.1678883,114.864594 90.126212,117.093738 90.126212,119.40625 C90.126212,121.46876 89.2616373,122.583332 87.532462,122.75 L87.532462,122.75 Z M77.876212,112.03125 C77.8553786,112.781254 77.4387161,113.15625 76.626212,113.15625 L73.094962,113.1875 C70.4907823,116.145848 66.4179064,118.583324 60.876212,120.5 C60.6887111,120.5625 60.5532958,120.520834 60.469962,120.375 C60.3866283,120.208332 60.4178779,120.083334 60.563712,120 C64.8554001,117.583321 67.9699523,115.312511 69.907462,113.1875 L63.438712,113.1875 C63.3345448,113.1875 63.2407958,113.135417 63.157462,113.03125 L62.407462,112.03125 C62.3866286,111.989583 62.376212,111.958333 62.376212,111.9375 C62.3970454,111.895833 62.4387117,111.875 62.501212,111.875 L67.907462,111.875 L67.938712,108.09375 L64.532462,108.09375 C64.4282948,108.09375 64.3449623,108.041667 64.282462,107.9375 L63.532462,106.90625 C63.532462,106.864583 63.5532951,106.822917 63.594962,106.78125 L67.938712,106.8125 L67.938712,102.625 C67.938712,102.458332 68.0324611,102.375 68.219962,102.375 L70.563712,102.46875 C70.8345467,102.489583 70.969962,102.645832 70.969962,102.9375 L70.969962,106.75 C71.1782964,106.708333 71.5845423,106.541668 72.188712,106.25 C72.6887145,105.999999 73.105377,105.875 73.438712,105.875 C73.6678798,105.875 73.8657945,105.90625 74.032462,105.96875 C74.3449636,105.197913 74.5741279,104.614585 74.719962,104.21875 C74.7824623,104.031249 74.9074611,103.989583 75.094962,104.09375 L77.344962,104.875 C77.5949633,105.000001 77.6574626,105.197915 77.532462,105.46875 C76.7824583,107.135425 76.2824633,108.218748 76.032462,108.71875 C75.4282923,109.927089 74.8032986,110.968746 74.157462,111.84375 C74.3866298,111.802083 74.5741279,111.75 74.719962,111.6875 C75.8033008,111.208331 76.4491276,110.96875 76.657462,110.96875 C77.4699661,110.96875 77.876212,111.322913 77.876212,112.03125 L77.876212,112.03125 Z M73.219962,108.0625 L70.969962,108.09375 L70.969962,111.90625 C71.8032995,110.781244 72.553292,109.500007 73.219962,108.0625 L73.219962,108.0625 Z M75.344962,127.5625 C75.344962,128.16667 75.0428817,128.46875 74.438712,128.46875 L73.063712,128.46875 C72.4803758,128.46875 72.188712,128.16667 72.188712,127.5625 L72.188712,127.375 L69.501212,127.375 L69.501212,127.625 C69.501212,128.250003 69.1887151,128.5625 68.563712,128.5625 L67.188712,128.5625 C66.6262092,128.5625 66.344962,128.250003 66.344962,127.625 L66.344962,118.9375 C66.344962,118.33333 66.6470423,118.03125 67.251212,118.03125 L74.469962,118.03125 C75.0532983,118.03125 75.344962,118.33333 75.344962,118.9375 L75.344962,127.5625 Z M72.188712,122.0625 L72.188712,119.84375 C72.188712,119.552082 72.0428801,119.40625 71.751212,119.40625 L69.969962,119.40625 C69.6574604,119.40625 69.501212,119.552082 69.501212,119.84375 L69.501212,122.0625 L72.188712,122.0625 Z M72.188712,126 L72.188712,123.40625 L69.501212,123.40625 L69.501212,126 L72.188712,126 Z M125.770587,123.8125 C124.93725,124.270836 124.281007,124.791664 123.801837,125.375 C123.656003,125.541668 123.468505,125.874998 123.239337,126.375 C123.051837,126.645835 122.843505,126.687501 122.614337,126.5 C120.968496,125.145827 119.572677,123.10418 118.426837,120.375 L118.426837,127.8125 C118.426837,128.41667 118.124757,128.71875 117.520587,128.71875 L116.145587,128.71875 C115.541418,128.71875 115.239337,128.41667 115.239337,127.8125 L115.239337,122.25 C112.989326,124.479178 109.697692,126.177077 105.364337,127.34375 C105.176837,127.385417 105.051838,127.322918 104.989337,127.15625 C104.906004,126.989582 104.94767,126.854167 105.114337,126.75 C109.760194,124.062487 112.916412,121.187515 114.583087,118.125 L113.145587,118.125 C113.020587,118.541669 112.73934,118.75 112.301837,118.75 L110.926837,118.75 C110.322668,118.75 110.020587,118.44792 110.020587,117.84375 L110.020587,109.5 C110.020587,108.89583 110.322668,108.59375 110.926837,108.59375 L115.239337,108.59375 L115.239337,106.40625 L109.333087,106.40625 C109.208087,106.40625 109.103921,106.354167 109.020587,106.25 L108.239337,105.1875 C108.218504,105.145833 108.208087,105.114583 108.208087,105.09375 C108.228921,105.052083 108.270587,105.03125 108.333087,105.03125 L115.239337,105.03125 L115.239337,101.4375 C115.239337,101.249999 115.333087,101.15625 115.520587,101.15625 L117.989337,101.28125 C118.281006,101.302083 118.426837,101.458332 118.426837,101.75 L118.426837,105.03125 L120.645587,105.03125 C120.916422,105.03125 121.197669,104.968751 121.489337,104.84375 C122.635177,104.343748 123.364336,104.09375 123.676837,104.09375 C124.551842,104.09375 124.989337,104.45833 124.989337,105.1875 C124.989337,106.000004 124.551842,106.40625 123.676837,106.40625 L118.426837,106.40625 L118.426837,108.59375 L122.739337,108.59375 C123.343507,108.59375 123.645587,108.89583 123.645587,109.5 L123.645587,118 C123.645587,118.583336 123.343507,118.885417 122.739337,118.90625 L121.395587,118.9375 C120.853918,118.958333 120.551838,118.687503 120.489337,118.125 L118.551837,118.125 C119.926844,120.06251 122.301821,121.843742 125.676837,123.46875 C125.864338,123.552084 125.895588,123.666666 125.770587,123.8125 L125.770587,123.8125 Z M120.489337,110.40625 C120.489337,110.093748 120.333089,109.9375 120.020587,109.9375 L118.426837,109.9375 L118.426837,112.5625 L120.489337,112.5625 L120.489337,110.40625 Z M120.489337,113.9375 L118.426837,113.9375 L118.426837,116.78125 L120.489337,116.78125 L120.489337,113.9375 Z M115.239337,112.5625 L115.239337,109.9375 L113.676837,109.9375 C113.364336,109.9375 113.208087,110.093748 113.208087,110.40625 L113.208087,112.5625 L115.239337,112.5625 Z M115.239337,116.78125 L115.239337,113.9375 L113.208087,113.9375 L113.208087,116.78125 L115.239337,116.78125 Z M102.739337,104.8125 C102.156001,105.958339 100.801848,108.072901 98.6768375,111.15625 C99.9060103,111.385418 100.520587,112.072911 100.520587,113.21875 C100.520587,113.82292 100.228924,114.291665 99.6455875,114.625 C99.5414203,114.6875 99.3851718,114.71875 99.1768375,114.71875 C98.6560015,114.71875 98.2497556,114.500002 97.9580875,114.0625 C97.3330843,113.145829 96.4060103,112.708333 95.1768375,112.75 C95.1351706,112.708333 95.124754,112.635417 95.1455875,112.53125 C95.7497572,111.968747 96.4060006,111.562501 97.1143375,111.3125 C97.8018409,109.145823 98.4580843,106.666681 99.0830875,103.875 C99.1247543,103.708332 99.2497531,103.645833 99.4580875,103.6875 L102.458087,104.3125 C102.791422,104.375 102.885172,104.541665 102.739337,104.8125 L102.739337,104.8125 Z M106.583087,119.46875 C106.458087,120.364588 105.958092,120.802083 105.083087,120.78125 C104.395584,120.78125 104.051837,120.406254 104.051837,119.65625 C104.051837,119.489582 104.072671,119.322918 104.114337,119.15625 L102.645587,119.3125 L102.645587,127 C102.645587,127.60417 102.343507,127.90625 101.739337,127.90625 L100.645587,127.90625 C100.041418,127.90625 99.7393375,127.60417 99.7393375,127 L99.7393375,119.625 L96.9580875,119.90625 C96.6872528,119.927083 96.5414209,119.802085 96.5205875,119.53125 L96.3643375,117.9375 C96.343504,117.749999 96.4268365,117.65625 96.6143375,117.65625 L98.8330875,117.65625 L103.270587,109.40625 C103.353921,109.260416 103.47892,109.21875 103.645587,109.28125 L106.051837,110.3125 C106.343506,110.437501 106.395588,110.624999 106.208087,110.875 L101.364337,117.625 C102.572677,117.604167 103.531001,117.59375 104.239337,117.59375 C104.176837,117.072914 103.906007,116.531253 103.426837,115.96875 C103.426837,115.885416 103.468504,115.822917 103.551837,115.78125 C105.614348,116.364586 106.645587,117.395826 106.645587,118.875 C106.645587,118.979167 106.624754,119.177082 106.583087,119.46875 L106.583087,119.46875 Z M107.176837,123.25 C107.176837,124.187505 106.791425,124.666667 106.020587,124.6875 C105.499752,124.6875 105.156005,124.416669 104.989337,123.875 C104.718503,123.041663 104.051843,122.489585 102.989337,122.21875 C102.82267,122.177083 102.833087,122.114584 103.020587,122.03125 C103.791425,121.677082 104.489334,121.5 105.114337,121.5 C106.489344,121.5 107.176837,122.083327 107.176837,123.25 L107.176837,123.25 Z M99.3643375,123.15625 C98.2809987,124.531257 96.9372622,125.614579 95.3330875,126.40625 C95.2080868,126.46875 95.1247543,126.46875 95.0830875,126.40625 C94.9997537,126.322916 94.9789206,126.239584 95.0205875,126.15625 C95.8747584,124.76041 96.551835,123.385423 97.0518375,122.03125 C97.1143378,121.885416 97.22892,121.84375 97.3955875,121.90625 L99.2080875,122.59375 C99.520589,122.718751 99.5726718,122.906249 99.3643375,123.15625 L99.3643375,123.15625 Z M152.928713,103.15625 C152.928713,103.968754 152.480801,104.375 151.584963,104.375 L144.897463,104.375 L144.897463,107.90625 L147.616213,107.90625 C147.970381,107.90625 148.314128,107.833334 148.647463,107.6875 C149.751635,107.187498 150.428712,106.9375 150.678713,106.9375 C151.532884,106.9375 151.959963,107.30208 151.959963,108.03125 C151.959963,108.843754 151.522467,109.25 150.647463,109.25 L144.897463,109.25 L144.897463,112.8125 L147.459963,112.8125 C147.876632,112.8125 148.220378,112.750001 148.491213,112.625 C149.657885,112.104164 150.324545,111.84375 150.491213,111.84375 C151.345384,111.864583 151.772463,112.23958 151.772463,112.96875 C151.772463,113.760421 151.334967,114.15625 150.459963,114.15625 L144.897463,114.15625 L144.897463,117.5 L151.959963,117.5 C152.626633,117.5 152.93913,117.812497 152.897463,118.4375 C152.709962,120.895846 152.428715,123.197906 152.053713,125.34375 C151.866212,126.385422 151.407883,127.213539 150.678713,127.828125 C149.949543,128.442711 149.053718,128.760417 147.991213,128.78125 C147.657878,128.78125 147.324548,128.510419 146.991213,127.96875 C146.657878,127.427081 146.251632,127.145833 145.772463,127.125 L143.834963,127.0625 C143.689129,127.041667 143.605796,126.968751 143.584963,126.84375 C143.56413,126.656249 143.637045,126.552083 143.803713,126.53125 L147.397463,125.9375 C148.001633,125.833333 148.454753,125.593752 148.756838,125.21875 C149.058923,124.843748 149.366211,122.864601 149.678713,119.28125 C149.699546,118.989582 149.564131,118.84375 149.272463,118.84375 L136.866213,118.84375 L136.866213,119.40625 C136.866213,119.989586 136.564133,120.291667 135.959963,120.3125 L134.616213,120.34375 C134.012043,120.364583 133.709963,120.062503 133.709963,119.4375 L133.709963,103.90625 C133.709963,103.30208 134.012043,103 134.616213,103 L148.584963,103 C148.980798,103 149.324545,102.937501 149.616213,102.8125 C150.741219,102.312498 151.407879,102.0625 151.616213,102.0625 C152.491217,102.0625 152.928713,102.42708 152.928713,103.15625 L152.928713,103.15625 Z M141.709963,107.90625 L141.709963,104.375 L137.334963,104.375 C137.022461,104.375 136.866213,104.520832 136.866213,104.8125 L136.866213,107.90625 L141.709963,107.90625 Z M141.709963,112.8125 L141.709963,109.25 L136.866213,109.25 L136.866213,112.8125 L141.709963,112.8125 Z M141.709963,117.5 L141.709963,114.15625 L136.866213,114.15625 L136.866213,117.5 L141.709963,117.5 Z M147.428713,122.625 C147.428713,123.104169 147.298506,123.505207 147.038088,123.828125 C146.77767,124.151043 146.407882,124.3125 145.928713,124.3125 C145.282876,124.291667 144.93913,123.927087 144.897463,123.21875 C144.834963,122.197912 144.314135,121.416669 143.334963,120.875 C143.168295,120.8125 143.189129,120.75 143.397463,120.6875 C143.834965,120.562499 144.293294,120.5 144.772463,120.5 C145.501633,120.5 146.121419,120.677082 146.631838,121.03125 C147.142257,121.385418 147.40788,121.916663 147.428713,122.625 L147.428713,122.625 Z M142.834963,123.625 C142.834963,124.145836 142.715172,124.55729 142.475588,124.859375 C142.236003,125.16146 141.866215,125.3125 141.366213,125.3125 C140.699543,125.291667 140.34538,124.927087 140.303713,124.21875 C140.241213,123.197912 139.720385,122.416669 138.741213,121.875 C138.616212,121.8125 138.647462,121.75 138.834963,121.6875 C139.230798,121.562499 139.689127,121.5 140.209963,121.5 C141.939138,121.5 142.81413,122.208326 142.834963,123.625 L142.834963,123.625 Z M138.584963,124.59375 C138.605796,125.718756 138.105801,126.28125 137.084963,126.28125 C136.439126,126.28125 136.09538,125.91667 136.053713,125.1875 C135.991213,124.208328 135.470385,123.437503 134.491213,122.875 C134.345379,122.791666 134.366212,122.729167 134.553713,122.6875 C135.137049,122.541666 135.595378,122.46875 135.928713,122.46875 C137.657888,122.46875 138.543296,123.177076 138.584963,124.59375 L138.584963,124.59375 Z M133.678713,125.125 C133.678713,125.833337 133.454757,126.432289 133.006838,126.921875 C132.558919,127.411461 131.9808,127.65625 131.272463,127.65625 C130.272458,127.65625 129.762046,127.156255 129.741213,126.15625 C129.72038,125.468747 129.99121,124.958335 130.553713,124.625 L132.116213,123.6875 C132.428715,123.395832 132.657879,122.958336 132.803713,122.375 C132.84538,122.229166 132.897463,122.229166 132.959963,122.375 C133.439132,123.437505 133.678713,124.354163 133.678713,125.125 L133.678713,125.125 Z M179.865588,110.3125 C179.303086,112.041675 178.53226,113.57291 177.553088,114.90625 C179.094763,116.031256 179.865588,117.156244 179.865588,118.28125 C179.865588,119.322922 179.365593,119.906249 178.365588,120.03125 C177.823919,120.09375 177.261425,119.76042 176.678088,119.03125 C176.282253,118.42708 175.876007,117.82292 175.459338,117.21875 C173.459328,118.968759 170.917687,120.302079 167.834338,121.21875 C167.626004,121.28125 167.459339,121.229168 167.334338,121.0625 C167.230171,120.895832 167.261421,120.760417 167.428088,120.65625 C170.198936,119.010408 172.313498,117.229176 173.771838,115.3125 C172.563499,114.062494 171.219762,112.968755 169.740588,112.03125 C169.657255,111.96875 169.636422,111.875001 169.678088,111.75 C169.740589,111.624999 169.834338,111.572917 169.959338,111.59375 C171.584347,111.906252 173.27183,112.499996 175.021838,113.375 C175.521841,112.395828 176.073919,110.958343 176.678088,109.0625 C176.719755,108.916666 176.896837,108.822917 177.209338,108.78125 L179.678088,109.5625 C179.886423,109.812501 179.948922,110.062499 179.865588,110.3125 L179.865588,110.3125 Z M183.896838,103.6875 C183.896838,104.500004 183.459343,104.90625 182.584338,104.90625 L165.928088,104.90625 C165.615587,104.90625 165.459338,105.072915 165.459338,105.40625 L165.459338,125.09375 L179.521838,125.09375 C179.938507,125.09375 180.282254,125.031251 180.553088,124.90625 C181.698927,124.385414 182.365587,124.125 182.553088,124.125 C183.428093,124.145833 183.865588,124.52083 183.865588,125.25 C183.865588,126.020837 183.428093,126.416667 182.553088,126.4375 C182.13642,126.458333 176.43856,126.458333 165.459338,126.4375 L165.459338,126.90625 C165.376005,127.427086 165.073924,127.6875 164.553088,127.6875 L163.209338,127.6875 C162.605169,127.6875 162.303088,127.38542 162.303088,126.78125 L162.271838,104.4375 C162.271838,103.83333 162.573919,103.53125 163.178088,103.53125 L179.553088,103.53125 C179.948924,103.53125 180.29267,103.468751 180.584338,103.34375 C181.730177,102.843748 182.396837,102.59375 182.584338,102.59375 C183.459343,102.59375 183.896838,102.95833 183.896838,103.6875 L183.896838,103.6875 Z M212.578714,107.6875 C212.682881,108.041668 212.734964,108.354165 212.734964,108.625 C212.734964,109.479171 212.255802,110.062498 211.297464,110.375 C211.172463,110.395833 211.057881,110.40625 210.953714,110.40625 C210.391211,110.40625 209.984965,110.093753 209.734964,109.46875 C209.276628,108.260411 208.339138,107.510418 206.922464,107.21875 C206.859964,107.197917 206.828714,107.166667 206.828714,107.125 C206.80788,107.0625 206.83913,107.010417 206.922464,106.96875 C208.068303,106.36458 209.099543,106.0625 210.016214,106.0625 C211.412054,106.0625 212.266212,106.604161 212.578714,107.6875 L212.578714,107.6875 Z M214.422464,113.84375 C214.422464,114.635421 213.984968,115.03125 213.109964,115.03125 L192.734964,115.0625 C192.630797,115.0625 192.537048,115.010417 192.453714,114.90625 L191.672464,113.84375 C191.65163,113.802083 191.641214,113.770833 191.641214,113.75 C191.662047,113.708333 191.703714,113.6875 191.766214,113.6875 L201.453714,113.6875 L201.453714,103 C201.453714,102.812499 201.537046,102.71875 201.703714,102.71875 L204.172464,102.84375 C204.464132,102.864583 204.609964,103.020832 204.609964,103.3125 L204.609964,113.6875 L210.078714,113.6875 C210.474549,113.6875 210.818296,113.625001 211.109964,113.5 C212.255803,112.999998 212.932879,112.75 213.141214,112.75 C213.995385,112.75 214.422464,113.11458 214.422464,113.84375 L214.422464,113.84375 Z M198.703714,107.8125 C198.807881,108.166668 198.859964,108.468749 198.859964,108.71875 C198.859964,109.572921 198.370385,110.156248 197.391214,110.46875 C197.266213,110.510417 197.151631,110.53125 197.047464,110.53125 C196.505794,110.53125 196.109965,110.218753 195.859964,109.59375 C195.380795,108.364577 194.443304,107.614585 193.047464,107.34375 C192.96413,107.322917 192.922464,107.28125 192.922464,107.21875 C192.922464,107.15625 192.96413,107.104167 193.047464,107.0625 C194.193303,106.479164 195.224543,106.1875 196.141214,106.1875 C197.537054,106.1875 198.391212,106.729161 198.703714,107.8125 L198.703714,107.8125 Z M213.422464,125.625 C213.33913,126.666672 212.526638,127.249999 210.984964,127.375 C209.339122,127.520834 207.537057,127.510418 205.578714,127.34375 C204.76621,127.28125 204.359964,126.802088 204.359964,125.90625 L204.359964,118.53125 C204.359964,118.364582 204.453713,118.28125 204.641214,118.28125 L207.297464,118.34375 C207.589132,118.34375 207.734964,118.489582 207.734964,118.78125 L207.734964,123.53125 C207.734964,123.864585 207.880796,124.041667 208.172464,124.0625 C208.797467,124.125 209.214129,124.135417 209.422464,124.09375 C209.818299,124.03125 210.130796,123.812502 210.359964,123.4375 L212.703714,119.78125 C212.787048,119.635416 212.90163,119.59375 213.047464,119.65625 C213.214131,119.71875 213.276631,119.822916 213.234964,119.96875 L212.016214,123.375 C211.87038,123.791669 211.953712,124.03125 212.266214,124.09375 C213.120385,124.260418 213.505798,124.770829 213.422464,125.625 L213.422464,125.625 Z M201.484964,118.90625 C201.443297,120.052089 201.391214,120.937497 201.328714,121.5625 C201.016212,124.208347 199.651643,126.124994 197.234964,127.3125 C195.776623,128.04167 193.359981,128.635414 189.984964,129.09375 C189.776629,129.114583 189.641214,129.031251 189.578714,128.84375 C189.49538,128.635416 189.568296,128.489584 189.797464,128.40625 C192.609978,127.406245 194.484959,126.552087 195.422464,125.84375 C197.130806,124.552077 197.984964,122.791678 197.984964,120.5625 L197.984964,118.625 C197.984964,118.458332 198.078713,118.375 198.266214,118.375 L201.047464,118.46875 C201.339132,118.46875 201.484964,118.614582 201.484964,118.90625 L201.484964,118.90625 Z M245.198089,105.71875 C245.239756,105.906251 245.260589,106.093749 245.260589,106.28125 C245.260589,107.031254 244.906426,107.4375 244.198089,107.5 C243.739754,107.520833 243.406424,107.260419 243.198089,106.71875 C242.906421,105.968746 242.271011,105.489584 241.291839,105.28125 C241.146005,105.260417 241.146005,105.208334 241.291839,105.125 C241.896009,104.729165 242.541836,104.53125 243.229339,104.53125 C244.291845,104.53125 244.948088,104.927079 245.198089,105.71875 L245.198089,105.71875 Z M242.448089,107.46875 C242.489756,107.656251 242.510589,107.833332 242.510589,108 C242.510589,108.770837 242.156426,109.1875 241.448089,109.25 C240.989754,109.270833 240.656424,109.010419 240.448089,108.46875 C240.156421,107.697913 239.521011,107.218751 238.541839,107.03125 C238.396005,107.010417 238.396005,106.947917 238.541839,106.84375 C239.146009,106.447915 239.791836,106.25 240.479339,106.25 C241.541845,106.25 242.198088,106.656246 242.448089,107.46875 L242.448089,107.46875 Z M245.854339,115.53125 C245.854339,116.947924 245.187679,117.65625 243.854339,117.65625 C243.062669,117.65625 242.57309,117.093756 242.385589,115.96875 C242.010587,113.802073 240.812683,112.447919 238.791839,111.90625 C238.708506,111.885417 238.666839,111.84375 238.666839,111.78125 C238.646006,111.697916 238.687672,111.635417 238.791839,111.59375 C239.541843,111.364582 240.291836,111.260417 241.041839,111.28125 C242.43768,111.302083 243.58871,111.718746 244.494964,112.53125 C245.401219,113.343754 245.854339,114.343744 245.854339,115.53125 L245.854339,115.53125 Z M236.885589,116.46875 C236.843922,119.031263 236.437677,121.729152 235.666839,124.5625 C235.416838,125.520838 234.911635,126.249998 234.151214,126.75 C233.390794,127.250002 232.593927,127.46875 231.760589,127.40625 C231.135586,127.364583 230.771007,126.989587 230.666839,126.28125 C230.604339,125.781248 230.229343,125.520833 229.541839,125.5 L227.666839,125.4375 C227.396005,125.416667 227.250173,125.291668 227.229339,125.0625 C227.208506,124.812499 227.323088,124.677083 227.573089,124.65625 L231.385589,124.1875 C232.010592,124.104166 232.437672,123.958334 232.666839,123.75 C232.85434,123.604166 233.000172,123.302086 233.104339,122.84375 C233.708509,120.614572 234.052256,118.385428 234.135589,116.15625 C234.177256,115.156245 234.015799,114.427086 233.651214,113.96875 C233.286629,113.510414 232.635594,113.302083 231.698089,113.34375 C231.281421,113.34375 230.729343,113.395833 230.041839,113.5 C228.666832,118.312524 227.25018,122.74998 225.791839,126.8125 C225.666839,127.187502 225.396008,127.375 224.979339,127.375 C224.854339,127.375 224.739757,127.354167 224.635589,127.3125 L223.198089,126.75 C222.823087,126.604166 222.635589,126.322919 222.635589,125.90625 C222.635589,125.802083 222.646006,125.697917 222.666839,125.59375 C224.250181,121.572897 225.61475,117.739602 226.760589,114.09375 C226.698089,114.114583 225.208521,114.468747 222.291839,115.15625 C222.000171,115.21875 221.833506,115.104168 221.791839,114.8125 L221.510589,113 C221.489756,112.812499 221.562672,112.708333 221.729339,112.6875 C224.229352,112.291665 226.135583,112.010418 227.448089,111.84375 C228.073092,109.677073 228.604337,107.62501 229.041839,105.6875 C229.083506,105.499999 229.187672,105.427083 229.354339,105.46875 L231.760589,105.96875 C232.093924,106.03125 232.208507,106.208332 232.104339,106.5 L230.604339,111.5625 C231.208509,111.541667 231.541839,111.53125 231.604339,111.53125 C235.166857,111.53125 236.927256,113.177067 236.885589,116.46875 L236.885589,116.46875 Z M266.161215,103.09375 C264.848708,104.989593 263.32789,106.593743 261.598715,107.90625 C260.05704,109.031256 258.11956,110.104162 255.786215,111.125 C255.536214,111.229167 255.338299,111.177084 255.192465,110.96875 C255.067464,110.781249 255.098714,110.604168 255.286215,110.4375 C258.223729,107.70832 260.557039,104.625017 262.286215,101.1875 C262.369549,101.020832 262.494547,100.96875 262.661215,101.03125 L265.973715,102.5 C266.286216,102.625001 266.348716,102.822915 266.161215,103.09375 L266.161215,103.09375 Z M275.629965,126.15625 C275.629965,126.947921 275.182053,127.34375 274.286215,127.34375 L252.536215,127.34375 C252.411214,127.34375 252.317465,127.302084 252.254965,127.21875 L251.442465,126.125 C251.379964,126.041666 251.411214,126 251.536215,126 L256.161215,126 L256.129965,112.15625 C256.129965,111.989582 256.223714,111.90625 256.411215,111.90625 L258.848715,112 C259.161216,112.020833 259.317465,112.177082 259.317465,112.46875 L259.317465,115.6875 L270.629965,115.6875 C271.0258,115.6875 271.369547,115.625001 271.661215,115.5 C272.807054,114.999998 273.473714,114.75 273.661215,114.75 C274.515386,114.75 274.942465,115.11458 274.942465,115.84375 C274.942465,116.614587 274.504969,117.020833 273.629965,117.0625 L270.129965,117.0625 L270.129965,126 L271.286215,126 C271.661217,126 272.004963,125.927084 272.317465,125.78125 C273.421637,125.281248 274.088297,125.03125 274.317465,125.03125 C275.192469,125.03125 275.629965,125.406246 275.629965,126.15625 L275.629965,126.15625 Z M266.973715,117.0625 L259.317465,117.0625 L259.317465,126 L266.942465,126 L266.973715,117.0625 Z M301.46059,110.53125 C301.46059,111.385421 300.939762,111.822917 299.89809,111.84375 L299.67934,111.84375 C299.366839,111.84375 299.085592,111.927082 298.83559,112.09375 C297.585584,112.864587 296.335597,113.677079 295.08559,114.53125 C294.96059,114.635417 294.835591,114.635417 294.71059,114.53125 C294.606423,114.427083 294.606423,114.302084 294.71059,114.15625 C295.460594,113.093745 296.033505,112.333336 296.42934,111.875 L293.36684,111.84375 C293.221006,111.84375 293.116841,111.791667 293.05434,111.6875 L292.24184,110.53125 C292.158507,110.427083 292.17934,110.375 292.30434,110.375 L296.71059,110.375 C297.127259,110.375 297.51788,110.286459 297.882465,110.109375 C298.24705,109.932291 298.622047,109.755209 299.007465,109.578125 C299.392884,109.401041 299.741839,109.3125 300.05434,109.3125 C300.991845,109.3125 301.46059,109.718746 301.46059,110.53125 L301.46059,110.53125 Z M301.55434,123.40625 C301.596007,123.968753 301.325177,124.28125 300.74184,124.34375 C299.908503,124.427084 299.273092,124.46875 298.83559,124.46875 C297.064748,124.46875 295.721012,124.229169 294.80434,123.75 C293.554334,123.104163 292.752259,121.916675 292.39809,120.1875 C292.33559,119.895832 292.398089,119.687501 292.58559,119.5625 C292.773091,119.437499 292.960589,119.499999 293.14809,119.75 C293.606426,120.35417 294.096004,120.760416 294.61684,120.96875 C294.971009,121.114584 295.533503,121.229166 296.30434,121.3125 C297.221012,121.395834 298.575165,121.281252 300.36684,120.96875 C300.97101,120.864583 301.30434,121.083331 301.36684,121.625 L301.55434,123.40625 Z M290.46059,113.78125 C290.627258,113.927084 290.627258,114.124999 290.46059,114.375 C288.856416,116.854179 287.575178,119.06249 286.61684,121 C286.304339,121.645837 286.221006,122.229164 286.36684,122.75 C286.616842,123.583337 286.74184,124.041666 286.74184,124.125 C286.721007,124.958337 286.241845,125.416666 285.30434,125.5 C284.887672,125.520833 284.444968,125.286461 283.976215,124.796875 C283.507463,124.307289 283.179341,123.619796 282.99184,122.734375 C282.804339,121.848954 282.71059,120.73959 282.71059,119.40625 C282.71059,118.447912 282.877255,115.906271 283.21059,111.78125 C283.293924,110.843745 283.387673,109.322927 283.49184,107.21875 C283.512674,106.947915 283.648089,106.822917 283.89809,106.84375 L286.21059,107 C286.523092,107 286.658507,107.156248 286.61684,107.46875 C286.55434,108.447922 286.408508,109.885407 286.17934,111.78125 C285.783505,114.677098 285.58559,116.687494 285.58559,117.8125 C285.58559,118.208335 285.606423,118.541665 285.64809,118.8125 C285.689757,118.958334 285.762673,119.03125 285.86684,119.03125 C285.971007,119.03125 286.08559,118.937501 286.21059,118.75 C287.585597,116.81249 288.804335,115.197923 289.86684,113.90625 C290.075175,113.656249 290.273089,113.614582 290.46059,113.78125 L290.46059,113.78125 Z M327.937466,117.96875 C328.041633,120.947932 326.979144,123.270825 324.749966,124.9375 C322.645789,126.479174 319.312489,127.58333 314.749966,128.25 C314.499964,128.291667 314.333299,128.177085 314.249966,127.90625 C314.166632,127.635415 314.260381,127.458334 314.531216,127.375 C321.218749,125.270823 324.572882,122.343769 324.593716,118.59375 C324.593716,117.218743 324.270802,116.062505 323.624966,115.125 C322.124958,117.666679 320.27081,119.718742 318.062466,121.28125 C316.062456,122.718757 314.239557,123.4375 312.593716,123.4375 C310.552039,123.4375 309.489549,122.364594 309.406216,120.21875 C309.281215,116.531232 311.187446,113.885425 315.124966,112.28125 C315.166633,110.822909 315.218715,109.270842 315.281216,107.625 L311.781216,107.625 C311.656215,107.625 311.562466,107.583334 311.499966,107.5 L310.718716,106.40625 C310.635382,106.322916 310.656215,106.28125 310.781216,106.28125 L315.343716,106.28125 C315.406216,105.072911 315.479132,103.843756 315.562466,102.59375 C315.562466,102.385416 315.656215,102.291667 315.843716,102.3125 L318.281216,102.4375 C318.593717,102.458333 318.739549,102.614582 318.718716,102.90625 C318.635382,103.947922 318.552049,105.072911 318.468716,106.28125 L322.562466,106.28125 C322.937468,106.28125 323.281214,106.208334 323.593716,106.0625 C324.718721,105.562498 325.385381,105.3125 325.593716,105.3125 C326.447887,105.3125 326.874966,105.687496 326.874966,106.4375 C326.874966,107.187504 326.40622,107.583333 325.468716,107.625 L318.406216,107.625 C318.364549,108.395837 318.312466,109.677074 318.249966,111.46875 C318.541634,111.447917 318.812464,111.4375 319.062466,111.4375 C320.354139,111.395833 321.552044,111.531248 322.656216,111.84375 C322.760383,111.614582 322.979131,111.19792 323.312466,110.59375 C323.395799,110.427082 323.541631,110.395833 323.749966,110.5 L325.312466,111.34375 C325.5833,111.468751 325.6458,111.666665 325.499966,111.9375 C325.479132,111.979167 325.302051,112.281247 324.968716,112.84375 C326.864559,114.031256 327.854132,115.739572 327.937466,117.96875 L327.937466,117.96875 Z M321.624966,113.5 C320.833295,113.145832 319.906221,112.96875 318.843716,112.96875 C318.656215,112.96875 318.447884,112.979167 318.218716,113 C318.197882,115.00001 318.197882,116.572911 318.218716,117.71875 C319.364555,116.593744 320.49996,115.187508 321.624966,113.5 L321.624966,113.5 Z M315.156216,119.90625 C315.072882,118.447909 315.052049,116.510429 315.093716,114.09375 C313.135373,115.302089 312.135383,116.947906 312.093716,119.03125 C312.072882,119.989588 312.364546,120.479167 312.968716,120.5 C313.593719,120.520833 314.322878,120.322919 315.156216,119.90625 L315.156216,119.90625 Z M350.964341,120.3125 C350.964341,122.25001 350.370597,123.812494 349.183091,125 C347.828918,126.39584 345.808105,127.09375 343.120591,127.09375 C340.578912,127.114583 339.287258,125.979178 339.245591,123.6875 C339.224758,122.624995 339.547671,121.802086 340.214341,121.21875 C340.818511,120.677081 341.662252,120.40625 342.745591,120.40625 C344.412266,120.40625 345.839335,121.229158 347.026841,122.875 C347.568511,122.229163 347.828925,121.343756 347.808091,120.21875 C347.745591,117.656237 346.589352,116.354167 344.339341,116.3125 C343.068502,116.291667 341.683099,116.791662 340.183091,117.8125 C339.578922,118.729171 339.016427,119.593746 338.495591,120.40625 C338.349757,120.635418 338.131009,120.75 337.839341,120.75 C337.65184,120.75 337.474759,120.697917 337.308091,120.59375 L336.308091,119.75 C336.078923,119.583332 335.964341,119.343752 335.964341,119.03125 C335.964341,118.822916 336.037257,118.635418 336.183091,118.46875 C337.891433,116.218739 339.735165,113.635431 341.714341,110.71875 C342.339344,109.822912 343.287252,108.395843 344.558091,106.4375 L339.901841,106.4375 C339.797674,106.4375 339.703925,106.385417 339.620591,106.28125 L338.839341,105.21875 C338.776841,105.135416 338.797674,105.09375 338.901841,105.09375 L345.433091,105.09375 L345.870591,104.40625 C345.974758,104.239582 346.110174,104.197916 346.276841,104.28125 L348.558091,105.375 C348.828926,105.500001 348.881009,105.687499 348.714341,105.9375 C347.776837,107.166673 346.381017,109.031237 344.526841,111.53125 C344.006005,112.302087 343.214347,113.468742 342.151841,115.03125 C342.985179,114.739582 343.766421,114.5625 344.495591,114.5 C346.641435,114.354166 348.297669,114.906244 349.464341,116.15625 C350.464346,117.239589 350.964341,118.624992 350.964341,120.3125 L350.964341,120.3125 Z M344.901841,124.34375 C344.672673,123.718747 344.308094,123.218752 343.808091,122.84375 C343.308089,122.468748 342.808094,122.291667 342.308091,122.3125 C341.370587,122.354167 340.922674,122.770829 340.964341,123.5625 C341.006008,124.250003 341.506003,124.635416 342.464341,124.71875 C343.235178,124.802084 344.04767,124.677085 344.901841,124.34375 L344.901841,124.34375 Z M381.826217,109.78125 C381.826217,110.302086 381.524136,110.5625 380.919967,110.5625 L380.044967,110.5625 C379.440797,110.5625 379.138717,110.291669 379.138717,109.75 L379.138717,109.625 L367.482467,109.625 L367.482467,109.71875 C367.482467,110.32292 367.190803,110.625 366.607467,110.625 L365.669967,110.625 C365.08663,110.625 364.794967,110.312503 364.794967,109.6875 L364.826217,103.1875 C364.826217,102.604164 365.11788,102.3125 365.701217,102.3125 L369.513717,102.3125 L369.513717,100.34375 C369.513717,100.177082 369.607466,100.09375 369.794967,100.09375 L371.794967,100.15625 C372.107468,100.15625 372.263717,100.312498 372.263717,100.625 L372.263717,102.3125 L374.294967,102.3125 L374.294967,100.34375 C374.294967,100.177082 374.378299,100.09375 374.544967,100.09375 L376.669967,100.15625 C376.961635,100.15625 377.107467,100.312498 377.107467,100.625 L377.107467,102.3125 L380.919967,102.3125 C381.524136,102.3125 381.826217,102.604164 381.826217,103.1875 L381.826217,109.78125 Z M379.138717,105.28125 L379.138717,104.09375 C379.138717,103.802082 378.982468,103.65625 378.669967,103.65625 L377.107467,103.65625 L377.107467,105.28125 L379.138717,105.28125 Z M379.138717,108.28125 L379.138717,106.625 L377.107467,106.625 L377.107467,108.28125 L379.138717,108.28125 Z M374.294967,105.28125 L374.294967,103.65625 L372.263717,103.65625 L372.263717,105.28125 L374.294967,105.28125 Z M374.294967,108.28125 L374.294967,106.625 L372.263717,106.625 L372.263717,108.28125 L374.294967,108.28125 Z M369.513717,105.28125 L369.513717,103.65625 L367.951217,103.65625 C367.638715,103.65625 367.482467,103.802082 367.482467,104.09375 L367.482467,105.28125 L369.513717,105.28125 Z M369.513717,108.28125 L369.513717,106.625 L367.482467,106.625 L367.482467,108.28125 L369.513717,108.28125 Z M381.826217,115.84375 C381.826217,116.57292 381.430387,116.9375 380.638717,116.9375 L368.732467,116.9375 C368.628299,116.9375 368.544967,116.895834 368.482467,116.8125 L367.763717,115.8125 C367.701216,115.729166 367.722049,115.6875 367.826217,115.6875 L377.857467,115.6875 C378.211635,115.6875 378.524132,115.625001 378.794967,115.5 C379.836639,115.041664 380.451216,114.8125 380.638717,114.8125 C381.430387,114.8125 381.826217,115.156247 381.826217,115.84375 L381.826217,115.84375 Z M383.076217,119.34375 C383.055383,120.07292 382.628304,120.4375 381.794967,120.4375 L367.513717,120.4375 C367.388716,120.4375 367.294967,120.395834 367.232467,120.3125 L366.513717,119.34375 C366.492883,119.302083 366.482467,119.270833 366.482467,119.25 C366.482467,119.208333 366.513716,119.1875 366.576217,119.1875 L379.107467,119.1875 C379.482469,119.1875 380.107462,118.968752 380.982467,118.53125 C381.274135,118.385416 381.544965,118.3125 381.794967,118.3125 C382.649138,118.3125 383.076217,118.656247 383.076217,119.34375 L383.076217,119.34375 Z M383.857467,126 C383.14913,126.562503 382.628302,127.083331 382.294967,127.5625 C382.211633,127.666667 382.013718,128.072913 381.701217,128.78125 C381.534549,129.031251 381.326218,129.083334 381.076217,128.9375 C378.263703,127.416659 376.086641,124.9896 374.544967,121.65625 C374.419966,121.406249 374.482465,121.197918 374.732467,121.03125 C374.982468,120.864582 375.201216,120.885416 375.388717,121.09375 C376.534556,122.36459 377.534546,123.249998 378.388717,123.75 L379.419967,121 C379.482467,120.833332 379.607466,120.78125 379.794967,120.84375 L382.107467,121.75 C382.274134,121.833334 382.357467,121.968749 382.357467,122.15625 C382.357467,122.364584 382.274134,122.520833 382.107467,122.625 C381.607464,123.020835 380.774139,123.604163 379.607467,124.375 C380.128303,124.625001 381.503289,125.072913 383.732467,125.71875 C383.857467,125.760417 383.90955,125.822916 383.888717,125.90625 C383.888717,125.947917 383.8783,125.979167 383.857467,126 L383.857467,126 Z M383.263717,112.34375 C383.263717,113.07292 382.867887,113.4375 382.076217,113.4375 L366.169967,113.46875 C365.878299,113.46875 365.732467,113.604165 365.732467,113.875 L365.732467,115.28125 C365.732467,115.427084 365.72205,115.635415 365.701217,115.90625 C365.742884,118.177095 365.41997,120.031243 364.732467,121.46875 C363.649128,123.718761 361.586649,125.645825 358.544967,127.25 C358.378299,127.333334 358.242884,127.302084 358.138717,127.15625 C357.992883,126.989582 357.992883,126.833334 358.138717,126.6875 C359.763725,125.083325 360.93038,123.416675 361.638717,121.6875 C362.347054,119.958325 362.701217,117.947928 362.701217,115.65625 L362.701217,113.0625 C362.701217,112.499997 362.972047,112.21875 363.513717,112.21875 L379.294967,112.21875 C379.649135,112.21875 379.961632,112.156251 380.232467,112.03125 C381.274139,111.572914 381.888716,111.34375 382.076217,111.34375 C382.867887,111.34375 383.263717,111.67708 383.263717,112.34375 L383.263717,112.34375 Z M375.982467,126 C376.0033,126.208334 375.867885,126.374999 375.576217,126.5 C373.263705,127.541672 370.76373,128.437496 368.076217,129.1875 C367.805382,129.270834 367.638717,129.187501 367.576217,128.9375 L366.951217,126.4375 C366.90955,126.249999 367.222047,126.135417 367.888717,126.09375 L369.107467,126.09375 L369.107467,121.375 C369.107467,121.187499 369.201216,121.09375 369.388717,121.09375 L371.576217,121.15625 C371.888718,121.15625 372.044967,121.312498 372.044967,121.625 L372.044967,125.9375 L375.482467,125.6875 C375.774135,125.666667 375.9408,125.770832 375.982467,126 L375.982467,126 Z M414.763092,103.59375 L414.731842,127.21875 C414.731842,127.82292 414.429762,128.125 413.825592,128.125 L412.481842,128.125 C411.877672,128.125 411.575592,127.854169 411.575592,127.3125 L411.575592,126.8125 L395.856842,126.8125 L395.856842,127.25 C395.856842,127.85417 395.544345,128.15625 394.919342,128.15625 L393.575592,128.15625 C392.971422,128.15625 392.669342,127.843753 392.669342,127.21875 L392.731842,103.59375 C392.731842,102.98958 393.033922,102.6875 393.638092,102.6875 L413.856842,102.6875 C414.461012,102.6875 414.763092,102.98958 414.763092,103.59375 L414.763092,103.59375 Z M411.575592,104.6875 C411.575592,104.270831 411.408927,104.0625 411.075592,104.0625 L396.419342,104.0625 C396.065174,104.0625 395.888092,104.270831 395.888092,104.6875 L395.856842,125.46875 L411.575592,125.46875 L411.575592,104.6875 Z M410.231842,110.84375 C410.231842,111.51042 409.836013,111.84375 409.044342,111.84375 L398.044342,111.875 C397.940175,111.875 397.856842,111.833334 397.794342,111.75 L397.106842,110.8125 C397.106842,110.770833 397.127675,110.739583 397.169342,110.71875 L402.138092,110.71875 L402.138092,108.96875 L398.981842,108.96875 C398.877675,108.96875 398.794342,108.927084 398.731842,108.84375 L398.075592,107.9375 C398.075592,107.895833 398.096425,107.854167 398.138092,107.8125 L402.138092,107.8125 L402.138092,105.6875 C402.138092,105.479166 402.221425,105.395833 402.388092,105.4375 L404.481842,105.53125 C404.77351,105.552083 404.919342,105.708332 404.919342,106 L404.919342,107.8125 L405.481842,107.8125 C405.919344,107.770833 406.221425,107.71875 406.388092,107.65625 C407.242263,107.197914 407.804757,106.96875 408.075592,106.96875 C408.846429,106.96875 409.231842,107.30208 409.231842,107.96875 C409.231842,108.614587 408.856846,108.947917 408.106842,108.96875 L404.919342,108.96875 L404.919342,110.71875 L406.481842,110.71875 C406.898511,110.677083 407.200591,110.614584 407.388092,110.53125 C408.388097,110.093748 408.971425,109.875 409.138092,109.875 C409.867262,109.875 410.231842,110.197913 410.231842,110.84375 L410.231842,110.84375 Z M410.825592,118.28125 C410.158922,118.968753 409.263098,119.635413 408.138092,120.28125 C408.033925,120.34375 407.940176,120.354167 407.856842,120.3125 C407.731842,120.25 407.690175,120.156251 407.731842,120.03125 C408.086011,119.135412 408.388091,118.218755 408.638092,117.28125 C408.658926,117.135416 408.752675,117.09375 408.919342,117.15625 L410.731842,117.78125 C410.836009,117.802083 410.898509,117.874999 410.919342,118 C410.940176,118.104167 410.908926,118.197916 410.825592,118.28125 L410.825592,118.28125 Z M410.138092,122.34375 C409.63809,122.614585 409.190177,122.979164 408.794342,123.4375 C408.669342,123.583334 408.513093,123.822915 408.325592,124.15625 C408.263092,124.21875 408.200592,124.25 408.138092,124.25 C408.075592,124.25 408.013092,124.229167 407.950592,124.1875 C406.658919,122.979161 405.742262,121.416676 405.200592,119.5 C405.138092,119.270832 405.179758,119.114584 405.325592,119.03125 C405.49226,118.927083 405.638092,118.958332 405.763092,119.125 C406.617263,120.145838 408.065165,121.083329 410.106842,121.9375 C410.33601,122.041667 410.346427,122.177082 410.138092,122.34375 L410.138092,122.34375 Z M408.013092,117.53125 C408.013092,118.114586 407.721428,118.40625 407.138092,118.40625 L404.700592,118.40625 L404.700592,123.9375 C404.700592,124.270835 404.544344,124.4375 404.231842,124.4375 L402.513092,124.4375 C402.221424,124.479167 402.075592,124.343752 402.075592,124.03125 L402.075592,120.875 C400.888086,122.020839 398.971439,122.968746 396.325592,123.71875 C396.200592,123.760417 396.106842,123.718751 396.044342,123.59375 C396.002675,123.447916 396.044342,123.333334 396.169342,123.25 C398.815189,121.562492 400.596421,119.947924 401.513092,118.40625 L399.856842,118.40625 C399.273506,118.40625 398.981842,118.114586 398.981842,117.53125 L398.981842,114.25 C398.981842,113.666664 399.273506,113.375 399.856842,113.375 L407.169342,113.375 C407.731845,113.375 408.013092,113.666664 408.013092,114.25 L408.013092,117.53125 Z M405.231842,116.8125 L405.231842,114.9375 C405.231842,114.645832 405.08601,114.5 404.794342,114.5 L402.200592,114.5 C401.929757,114.5 401.794342,114.645832 401.794342,114.9375 L401.794342,116.8125 C401.794342,117.104168 401.929757,117.25 402.200592,117.25 L404.794342,117.25 C405.08601,117.25 405.231842,117.104168 405.231842,116.8125 L405.231842,116.8125 Z" id="東京都練馬区光が丘にある農園"></path>
        </g>
        <g id="cabbage" transform="translate(3.000000, 32.000000)" stroke="#FFFFFF" fill="#FFFFFF">
            <path d="M92.3394826,54.8762326 C92.3465932,55.0552652 92.3448156,55.2316714 92.347482,55.4093909 C93.5216179,52.5045975 94.6264255,48.5632534 93.5833911,45.6256302 C93.4274026,45.6413885 93.2531932,45.5529666 93.2443049,45.3537982 C93.2358611,45.1664487 93.2225288,44.9790991 93.2118629,44.7921873 C92.5683547,43.6138113 91.4871009,42.6604297 89.7903368,42.1023207 C87.8082604,41.4505369 86.0839427,41.2049689 84.5778313,39.5888603 C83.1899334,38.0988186 82.0882367,36.3159338 80.8349955,34.7151458 C78.5378311,31.7792734 76.0806785,28.9685926 73.5266442,26.2476469 C68.3168052,20.6967602 62.7483259,15.4343392 57.0958528,10.3224982 C53.9209752,7.45184804 50.4505638,4.66349156 46.5606277,2.79831307 C46.1371033,2.81188278 45.7135789,2.82982982 45.2900545,2.85478057 C47.8036474,3.92634991 50.1328094,5.40413507 52.3228705,7.07408483 C52.4219743,7.02856064 52.5437432,7.02593425 52.6495132,7.10779024 C53.3525726,7.64838997 53.9858593,8.23976667 54.5600393,8.87141477 C55.5413004,9.700918 56.4963413,10.5549342 57.4300504,11.4107014 C62.2043659,15.7893403 66.9333514,20.237141 71.432576,24.8911137 C73.769293,27.308273 76.0375706,29.7902166 78.1920788,32.3667106 C80.1959314,34.7628587 81.8922511,37.4365292 83.9592101,39.7718325 C84.8067034,40.7287159 85.7724101,41.5004384 86.9896539,41.9403596 C88.6890845,42.5540607 90.4956182,42.6135923 91.8146323,43.9902613 C94.6588676,46.9580881 93.4514008,51.1773924 92.0617253,54.6026497 C92.1990485,54.6131553 92.332372,54.7024528 92.3394826,54.8762326" id="Fill-288"></path>
            <path d="M40.3204356,0.78802241 C41.7229991,1.0042623 43.0682335,1.36801807 44.3663602,1.83858058 C44.8121052,1.80049785 45.2582946,1.7702943 45.7049284,1.74490581 C43.8152896,0.949107996 41.8296579,0.378304722 39.7307012,0.130985819 C33.9182398,-0.553627923 26.8400938,1.38552737 24.865128,7.3649543 C25.1228868,7.22137802 25.3802012,7.0786772 25.6419597,6.94254237 C27.8684626,1.50240197 34.8746139,-0.0519863956 40.3204356,0.78802241" id="Fill-289"></path>
            <path id="Fill-290" d="M91.7211032,55.0334904 C91.6461032,55.1910741 91.5711032,55.3473447 91.4971032,55.5005511 C91.4046032,55.6922779 91.5486032,55.8651823 91.7191032,55.9203366 C91.7276032,55.6270558 91.7271032,55.3311485 91.7211032,55.0334904"></path>
            <path d="M43.7936216,2.03667297 C43.4225378,2.06862745 43.4189825,2.64424578 43.7936216,2.61185357 C44.2153684,2.57508403 44.6371151,2.54575595 45.0588619,2.5208052 C45.4823863,2.49585444 45.9059107,2.4779074 46.3294351,2.46433769 C57.9023616,2.10233286 69.5050637,6.09138978 78.1488724,13.7613399 C86.968668,21.5879983 92.3033868,32.8149633 92.9806703,44.458212 C92.9913362,44.6451238 93.0046685,44.8324733 93.0131123,45.0198229 C93.0220006,45.2189912 93.19621,45.3074132 93.3521985,45.2916548 C93.4846332,45.2780851 93.6050688,45.1901008 93.5970694,45.0198229 C93.054887,33.02989 87.6370633,21.4076525 78.5617309,13.3546863 C69.5183961,5.32973511 57.273519,1.2522562 45.1641875,1.94037181 C44.7175536,1.96576029 44.2713642,1.99596384 43.8256193,2.03404658 C43.8149534,2.03492204 43.8042875,2.03535977 43.7936216,2.03667297" id="Fill-291"></path>
            <path d="M3.07390288,58.5661468 C3.16500729,58.5530148 3.25833375,58.5403206 3.35032699,58.5276264 C2.97168817,57.5935051 2.61615877,56.6536932 2.29307142,55.7077531 C2.28596083,55.7134437 2.27840583,55.7182587 2.27085083,55.7239492 C1.97931672,55.9520079 1.56379173,55.547543 1.85799231,55.3168579 C1.93887525,55.2538245 2.02109143,55.1995456 2.10197437,55.1382631 C1.49668556,53.282277 1.02694233,51.4017778 0.76073969,49.494577 C0.446540579,49.5799349 0.197669996,49.1347608 0.518979695,48.9850563 C0.574531164,48.9592301 0.630082634,48.9373434 0.685634103,48.911955 C0.676301456,48.8327254 0.667413221,48.7539335 0.658969398,48.6747039 C0.428319697,48.672953 0.273664406,48.3087595 0.518979695,48.1288514 C0.546533224,48.1087157 0.574086752,48.0903309 0.601640281,48.0701952 C0.476316166,46.5608933 0.489648519,45.0340821 0.676301456,43.4897616 C0.478538225,43.4849465 0.282997053,43.2849027 0.414098521,43.0660365 C0.547422047,42.8445438 0.693633515,42.6357453 0.832734394,42.4199432 C0.936282333,41.8206873 1.06382851,41.2183673 1.22381674,40.6134209 C1.50646262,39.542727 1.85443702,38.4790368 2.24596378,37.4236636 C2.02597996,37.4840707 1.75311114,37.257763 1.90554437,37.0104441 C2.27885025,36.4037467 2.68237612,35.8285661 3.10812258,35.2765853 C4.72489255,31.5751187 6.89495515,28.008036 9.21833981,24.6821439 C8.9081404,24.7902639 8.65571452,24.3389616 8.97035805,24.17131 C9.28944569,24.0014698 9.61075539,23.8381955 9.93206508,23.6740458 C10.637791,22.6904607 11.3528495,21.7274491 12.0687968,20.79289 C16.5338017,14.9622922 22.1960519,9.62939624 29.2395338,7.01832145 C36.6678763,4.26367037 45.3859017,4.48472532 51.885868,9.30853826 C52.1862904,9.53134414 52.4778245,9.03232901 52.1809574,8.81214952 C46.4613781,4.56745678 38.9885945,3.80492664 32.1677629,5.50858181 C29.8972632,6.07588322 27.7467547,6.92245801 25.7131265,7.9826463 C25.451368,8.11878113 25.1940536,8.26148195 24.9362948,8.40505823 C20.5903922,10.823093 16.8008932,14.2177091 13.5837965,17.9953411 C8.50994747,23.9533192 3.75740816,31.15402 1.23848233,38.5595796 C-1.16889615,45.6368399 0.235444995,52.2798694 2.86858465,58.8322882 C2.85436347,58.7092854 2.91080376,58.5893467 3.07390288,58.5661468" id="Fill-292"></path>
            <path d="M18.6669438,78.5133172 C18.6496117,78.480925 18.6322796,78.4472196 18.6149476,78.4148274 C12.0625407,76.4664797 8.54324396,70.1040368 5.81366696,64.3798079 C4.94350875,62.5553386 4.08134994,60.7094203 3.30407378,58.8398645 C3.18852672,58.8560606 3.07253526,58.871819 2.95876585,58.8880151 C2.82899761,58.9063998 2.72811615,58.8481814 2.66412085,58.7645745 C3.1574179,59.981471 3.69160083,61.1948657 4.25155964,62.4078227 C7.30155752,69.0162713 10.9595107,76.8779483 18.6740543,79.0350944 C18.8464861,79.083245 18.9691437,78.9816911 19.0144737,78.8525599 C19.0042523,78.7812095 18.9962529,78.7089837 18.987809,78.6371955 C18.872262,78.675716 18.7407161,78.6516407 18.6669438,78.5133172" id="Fill-293"></path>
            <path d="M18.391584,77.827969 C18.4089161,77.8603612 18.4262481,77.8940667 18.4435802,77.9264589 C18.5173525,78.0647824 18.6488984,78.0888576 18.7644455,78.0503372 C18.7440025,77.8826856 18.7151158,77.7180982 18.7017834,77.5473825 C18.6942284,77.4493304 18.7311146,77.3792931 18.7879993,77.333769 C17.0707923,74.0801028 15.1642658,70.0109408 15.8739914,66.4009602 C15.8291058,66.4263487 15.7833314,66.4442958 15.7388902,66.4714352 C15.5224617,66.6040682 15.3238096,66.4202205 15.3118105,66.2267427 C14.4043217,70.2477541 16.5472752,74.3589384 18.391584,77.827969" id="Fill-294"></path>
            <path d="M54.5871134,9.64550408 C54.5382281,9.63674943 54.488454,9.63105891 54.4395687,9.62274199 C56.5065278,12.2657713 57.633556,15.5128715 58.2712869,18.8597747 C58.3930557,19.5001775 58.4952704,20.1436444 58.5859304,20.7884244 C58.6641469,20.8663408 58.676146,21.0007247 58.6272607,21.1145352 C58.8419116,22.7214515 58.9819013,24.3388733 59.0858936,25.9554197 C59.2423265,28.3765186 59.5609698,31.210837 57.6037804,33.04231 C57.490011,33.1486791 57.4931219,33.3421569 57.6037804,33.4489636 C59.9316092,35.6980336 58.5054919,39.334278 55.2403987,39.4314547 C55.1128525,39.4353943 54.9919725,39.5181257 54.9586416,39.6424418 C54.7782105,40.3174254 54.5857802,41.3386555 54.3280214,42.4574999 C54.329799,42.5095901 54.3160222,42.5599294 54.2938017,42.606329 C53.5503008,45.7847052 52.2663952,49.6638913 49.2261744,48.7288945 C49.0008576,48.6597327 48.7390991,48.9468853 48.8964209,49.1513064 C51.1989182,52.139269 47.1289953,54.3594486 44.8838271,55.4187614 C42.3284595,56.6242769 39.7699811,57.8241019 37.2128358,59.026991 C34.5850291,60.26271 31.6034707,62.1817296 28.5943587,62.1506506 C26.1683149,62.1256998 24.3324499,60.2504535 21.9517362,60.0845529 C20.8087091,60.0048855 19.7412321,60.3056078 18.7973015,60.8475207 C18.8457424,60.904426 18.8959609,60.9587048 18.943513,61.0177987 C19.1750515,61.3049513 18.7639706,61.7142312 18.5306545,61.4244523 C18.4568821,61.3329662 18.3799989,61.2471706 18.3035601,61.1600618 C16.8161139,62.1966125 15.6979739,63.8402983 15.1962331,65.5115613 C15.156236,65.6450697 15.1295713,65.7794536 15.0966848,65.9129621 C15.118461,65.881883 15.1477922,65.8529927 15.1869004,65.8289174 C15.390441,65.7046014 15.5957592,65.5995455 15.8019663,65.5115613 C16.1446077,64.39403 16.7663398,63.3312153 17.7582668,62.3633886 C18.7315286,61.4143844 20.0292109,60.6728654 21.433552,60.6474769 C23.0925411,60.6177111 24.4564408,61.5522702 25.9336655,62.1414582 C27.7073128,62.8492718 29.4049657,62.8365775 31.2261651,62.2898496 C33.0380318,61.745748 34.7650159,60.8737847 36.4728903,60.0307118 C36.5057767,59.8836336 36.6315453,59.7663213 36.8133097,59.837234 C36.8235311,59.8411736 36.8337526,59.8442377 36.8439741,59.8481773 C37.181727,59.6822766 37.5190355,59.5181269 37.8563441,59.3596677 C40.4130449,58.1567786 42.9768563,56.9670215 45.5273354,55.7514381 C47.8609415,54.6387219 51.3162429,52.2592077 49.7705788,49.4240138 C51.3482405,49.5724052 52.6517002,48.5336658 53.3889793,47.107533 C53.9956014,45.933972 54.2484717,44.5625559 54.5857802,43.2996974 C54.7968758,42.5100278 54.919089,41.5986686 55.2408431,40.8466441 C55.5794849,40.0565368 55.6603678,40.1742868 56.3345404,39.8932625 C57.9335339,39.2261581 59.2498815,38.2745275 59.3987595,36.4075981 C59.4631992,35.5977928 59.2681024,34.7796706 58.8632433,34.0753589 C58.2441777,32.9976613 58.5845971,33.093087 59.1161136,32.0215177 C60.0356015,30.1690334 59.7973968,27.9422879 59.6698507,25.9554197 C59.5214171,23.6406899 59.303211,21.3242091 58.889908,19.0392451 C58.6512589,18.7420247 58.4170539,18.4413024 58.1748495,18.1467084 C57.9402001,17.8617445 58.351281,17.4524645 58.587708,17.7400548 C58.610373,17.7671942 58.6312604,17.7956468 58.6539254,17.8227863 C57.9828636,14.7464017 56.855391,11.78339 54.9510866,9.32771024 C54.9528643,9.49623728 54.8097637,9.68402455 54.5871134,9.64550408" id="Fill-295"></path>
            <path d="M52.9084731,6.59473806 C52.8027031,6.51288207 52.6809343,6.51550846 52.5818304,6.56103265 C52.4085099,6.64113771 52.307184,6.85650214 52.4956146,7.00139162 C53.2475593,7.58007408 53.916399,8.2174127 54.5172436,8.90027552 C54.802556,8.94098465 55.0874239,8.98300697 55.371403,9.03247075 C55.386513,9.03509715 55.3954013,9.04297633 55.4087336,9.04691593 C55.2198586,8.81229127 55.0229842,8.5829194 54.8189992,8.35836259 C54.2448192,7.72671449 53.6115325,7.13533779 52.9084731,6.59473806" id="Fill-296"></path>
            <path d="M50.1150659,85.7465109 C49.9892974,85.6931075 49.8630844,85.6410173 49.7377603,85.5880517 C43.980406,87.7224357 37.9510717,89.80079 31.7168636,89.0154977 C25.6004246,88.2450884 19.7297454,84.1505379 19.2342263,77.694858 C19.2133389,77.4252147 18.8933624,77.3538643 18.7360407,77.4812445 C18.679156,77.5267686 18.6422698,77.5968059 18.6498248,77.694858 C18.6631571,77.8655737 18.6920439,78.0301611 18.7124868,78.1978127 C18.7209307,78.2696008 18.7289301,78.3418267 18.7391516,78.4131771 C19.5004289,83.8288045 24.0080973,87.8209255 29.2885978,89.152508 C36.6058374,90.9979885 43.9688513,88.348831 50.7532412,85.8231141 C51.1012156,85.6935452 50.95056,85.1371871 50.5976971,85.2685069 C50.5630329,85.2816389 50.5279244,85.2943331 50.4928159,85.3074651 C50.6879126,85.4939392 50.4208212,85.8765175 50.1150659,85.7465109" id="Fill-297"></path>
            <path d="M42.6051422,81.8558727 C42.6202522,81.8554349 42.6353622,81.8549972 42.6504722,81.8545595 C41.4687813,81.3524802 40.2870905,80.8512764 39.1067328,80.3456953 C37.5672905,79.6860323 36.0069608,79.0158637 34.6052862,78.0957499 C32.8298612,76.930068 31.8743759,75.3533553 30.4229271,73.8965813 C29.6585389,73.1301116 28.7923804,72.6630509 27.7013495,72.5768176 C27.3595969,72.5496782 27.1631669,72.7125147 26.9427387,72.5474895 C26.7831949,72.4279885 26.6116519,71.3319062 26.4467752,71.04738 C25.3539667,69.1629413 23.1203532,68.7497217 21.2818217,69.6186209 C21.6546832,66.590387 18.6806797,64.4257994 15.8444439,65.6352545 C15.6382369,65.7232387 15.4329186,65.8282946 15.229378,65.9526106 C15.1902698,65.9766859 15.1609386,66.0055762 15.1391625,66.0366553 C15.1031651,66.0883077 15.0938325,66.1469639 15.0973877,66.2047446 C15.1093869,66.3982224 15.3080389,66.58207 15.5244674,66.4494371 C15.5689086,66.4222977 15.614683,66.4043506 15.6595686,66.3789621 C18.3673694,64.8534641 21.4111456,67.0640136 20.5969832,70.0926853 C20.5343212,70.3242458 20.80719,70.5593082 21.0258406,70.4174828 C23.4403296,68.8504002 26.3205622,70.3023592 26.379669,73.1283607 C26.3832243,73.2960122 26.5667663,73.4789844 26.7494196,73.4054454 C29.5123274,72.2940424 31.0535474,75.9604904 32.7600886,77.4400265 C34.1204329,78.6197158 35.7292035,79.4658528 37.3655276,80.2108737 C41.3878984,82.041909 45.5035956,83.6943495 49.5752961,85.4185781 C49.7006203,85.4715437 49.8268332,85.5236339 49.9526017,85.5770373 C50.258357,85.7070438 50.5254485,85.3244656 50.3303517,85.1379915 C50.3076867,85.1165426 50.2827997,85.0955314 50.2472467,85.0802108 C48.1362909,84.1832968 46.0244462,83.2885714 43.9134904,82.3925328 C43.477078,82.4061025 43.0411101,82.4157326 42.6051422,82.4310533 C42.228281,82.444623 42.2300586,81.8694424 42.6051422,81.8558727" id="Fill-298"></path>
            <path d="M73.0255147,83.0477001 C69.6448745,86.3652753 65.4807364,88.8966827 61.0019547,90.6274773 C58.4079233,91.6298849 55.2454892,92.6502396 52.0221708,93.1645753 C51.9661749,93.2652538 51.8590716,93.3278496 51.7155267,93.2713821 C51.6821958,93.2582501 51.653309,93.2403031 51.6204225,93.2262956 C46.8492179,93.9236036 41.9904642,93.4657353 38.6835963,90.1472847 C38.4196158,89.8828942 38.0067572,90.2895478 38.2702934,90.5539383 C43.0117224,95.3120913 50.6191629,94.2361447 56.5342833,92.6699375 C63.0266946,90.9509617 69.226683,87.8084796 73.8952285,83.0166211 C73.8530094,83.0433228 73.8041241,83.0630208 73.7401288,83.0617076 C73.5019241,83.0568925 73.2637194,83.0525152 73.0255147,83.0477001" id="Fill-299"></path>
            <path d="M58.6806556,18.2273012 C58.92286,18.5218952 59.157065,18.8226175 59.3957141,19.1198379 C63.4167516,24.1257476 66.9636019,29.5120469 70.2020303,35.034481 C73.6733305,40.9535008 76.8833167,47.1259678 79.0089381,53.6503718 C81.4580913,61.1684287 81.8242865,69.0554942 77.8441349,76.1310035 C76.6686658,78.220301 75.2287717,80.1121812 73.5884479,81.8101459 C73.6386664,81.8110213 73.688885,81.8118968 73.7391035,81.8127723 C73.9959735,81.8180251 74.0728567,82.0854797 73.9786414,82.2540067 C74.5363782,81.6766374 75.0767829,81.0808834 75.5878564,80.4558013 C80.1808519,74.8388169 82.2158133,67.911699 81.275438,60.7512696 C80.2470692,52.9202339 76.639779,45.4555803 72.8738338,38.568296 C68.9172359,31.3325766 64.4100119,24.3008406 59.1597314,17.9033791 C59.1370664,17.8762396 59.1161791,17.847787 59.0935141,17.8206476 C58.857087,17.5330573 58.4460062,17.9423373 58.6806556,18.2273012" id="Fill-300"></path>
            <path d="M92.5972028,54.9084284 C92.5945363,54.7307089 92.596314,54.5543027 92.5892034,54.3752701 C92.5820928,54.2014903 92.4487693,54.1121928 92.3114461,54.1016872 C92.1567908,54.0903062 91.9972469,54.1791659 92.0052464,54.3752701 C92.0110237,54.5262878 92.0088017,54.6746792 92.0119125,54.8243837 C92.0172455,55.1220419 92.0176899,55.4179491 92.0101349,55.7112299 C91.7448211,66.3647652 83.2045604,74.1428353 75.5780102,80.7552235 C75.2953644,81.0003538 75.7095561,81.4061319 75.9908688,81.1618771 C83.9236186,74.2842229 92.7620796,66.1292651 92.5972028,54.9084284" id="Fill-301"></path>
            <path d="M22.8313546,30.630828 C33.4710165,29.5807076 43.9120263,32.6553412 53.8530728,36.0420781 C54.2090466,36.16333 54.3619243,35.6078474 54.0086169,35.4874709 C43.5591633,31.9278296 32.5186421,28.7275668 21.3496858,30.2276763 C18.2628018,30.6422091 15.245246,31.4349427 12.432564,32.6216357 C13.0965151,32.5445948 13.7546889,32.4964442 14.4075298,32.4763085 C17.1015539,31.5251157 19.9484556,30.9153542 22.8313546,30.630828" id="Fill-302"></path>
            <path d="M0.546988185,42.9507728 C3.3565593,38.2687853 7.58513715,35.0011116 12.4403356,32.9442062 C12.3039012,32.9599646 12.1679112,32.9722211 12.0310324,32.9906059 C11.8017159,33.0208094 11.6541712,32.8168261 11.6652815,32.6469858 C7.14783599,34.664933 3.21434754,37.7496344 0.461216717,42.0144629 C0.322115837,42.230265 0.17590437,42.4390635 0.0425808431,42.6605561 C-0.0885206247,42.8794224 0.107020548,43.0794662 0.304783779,43.0842813 C0.395443777,43.0864699 0.486992598,43.0514513 0.546988185,42.9507728" id="Fill-303"></path>
            <path d="M2.32474182,36.4881988 C7.51369348,28.0552808 18.5093291,24.8208748 28.0286289,24.8103693 C37.9781193,24.7994259 47.8325056,28.6794875 57.8033277,27.1290387 C58.1735227,27.071258 58.0166454,26.5170885 57.648228,26.5739938 C48.2698067,28.0325187 39.0047105,24.6519101 29.642288,24.2842147 C29.4125271,24.3437463 29.1818774,24.394961 28.9530054,24.4584323 C28.7716854,24.5083338 28.642806,24.394961 28.6036977,24.2561998 C27.4922239,24.2404414 26.3785281,24.2684563 25.263499,24.3586292 C16.9885521,25.0287978 8.17320052,27.7869507 3.02291269,34.4641234 C2.59716623,35.0161042 2.19364035,35.5912848 1.82033448,36.1979821 C1.66790125,36.445301 1.94077007,36.6716087 2.16075388,36.6112017 C2.22297153,36.5941301 2.28163388,36.5577983 2.32474182,36.4881988" id="Fill-304"></path>
            <path d="M28.6235162,23.5470276 C28.4426406,23.5969291 28.3906444,23.7606411 28.4293082,23.8994023 C28.4684164,24.0381635 28.5972959,24.1515363 28.7786159,24.1016348 C29.0074879,24.0381635 29.2381376,23.9869488 29.4678985,23.9274172 C39.0169739,21.4625451 49.1437845,22.3358216 58.8724023,21.0987893 C58.9977264,21.0830309 59.0777205,21.0038013 59.118162,20.9105643 C59.1670473,20.7967538 59.1550482,20.6623699 59.0768317,20.5844535 C59.0306129,20.5384916 58.9630623,20.5122277 58.8724023,20.5236087 C48.8575834,21.7969728 38.4250174,20.8400894 28.6235162,23.5470276" id="Fill-305"></path>
            <path d="M8.13693309,23.5774196 C7.82228957,23.7450712 8.07471545,24.1963735 8.38491485,24.0882536 C8.40091368,24.082563 8.41602368,24.082563 8.4320225,24.0742461 C22.5989804,16.5391176 38.8315642,14.6673732 54.5041892,18.0392272 C54.8708289,18.118019 55.0272618,17.5634118 54.6597333,17.48462 C44.3929329,15.2758214 33.8919276,15.2972703 23.8748866,17.6592753 C23.5913519,17.8785793 23.3118169,18.1031361 23.0376148,18.3338212 C22.7718566,18.5570648 22.4003284,18.2200107 22.5838704,17.9783823 C17.9535444,19.1690149 13.4347656,20.8652286 9.09864013,23.0801554 C8.77733043,23.2443052 8.45602073,23.4075794 8.13693309,23.5774196" id="Fill-306"></path>
            <path d="M0.419193586,47.8631772 C6.84405433,43.1606162 14.0999651,41.9883684 21.4247596,42.7714719 C21.3945396,42.637088 21.447869,42.4895722 21.6238561,42.4514894 C21.8580611,42.4007124 22.0931549,42.3543128 22.3278043,42.304849 C14.6239265,41.3230149 6.96093462,42.4007124 0.207209179,47.3076946 C0.17965565,47.3278303 0.152102121,47.346215 0.124548593,47.3663507 C-0.120766696,47.5462588 0.0338885946,47.9104523 0.264538296,47.9122033 C0.314312412,47.912641 0.365864176,47.9025731 0.419193586,47.8631772" id="Fill-307"></path>
            <path d="M47.9364474,52.3624906 C48.2693118,52.5332063 48.5648457,52.0368176 48.2310924,51.8656642 C40.9165194,48.1112319 32.3851469,44.3178414 23.8262209,42.9074671 C23.2840386,43.0147116 22.742745,43.1276466 22.2010071,43.2423325 C31.1972343,44.4062634 40.2463464,48.4150183 47.9364474,52.3624906" id="Fill-308"></path>
            <path d="M22.2239917,42.0338641 C21.9893423,42.0833279 21.7542485,42.1297276 21.5200435,42.1805046 C21.3440564,42.2185873 21.290727,42.3661032 21.320947,42.5004871 C21.3533891,42.646252 21.4844905,42.7766963 21.6751432,42.7351117 C21.8715732,42.6926517 22.0680032,42.6541312 22.2639888,42.6125466 C22.8057267,42.4978607 23.3470202,42.3849257 23.8892026,42.2776812 C28.2942119,41.4074688 32.7196641,40.8060243 37.1402279,40.6471274 C36.8486938,40.4680947 36.555382,40.2886244 36.2616258,40.109154 C31.5726374,40.3376504 26.8818713,41.0515922 22.2239917,42.0338641" id="Fill-309"></path>
            <path d="M54.3737692,42.2039962 C48.7332952,40.5051561 43.0194933,39.9549263 37.2976919,40.1449022 C37.4265713,40.2241318 37.5558952,40.3033614 37.6843302,40.3821533 C37.8114319,40.4605074 37.8380966,40.5861366 37.8074322,40.6973207 C43.303028,40.5572463 48.7897355,41.1232345 54.2182251,42.7586034 C54.374658,42.8058785 54.487983,42.7257734 54.5417569,42.6141516 C54.5639775,42.567752 54.5777542,42.5174127 54.5759766,42.4653226 C54.5728657,42.3541385 54.5124257,42.2455808 54.3737692,42.2039962" id="Fill-310"></path>
            <path d="M37.1427961,57.753398 C37.3956664,58.0278563 37.8076361,57.6203273 37.5556546,57.3463067 C28.1447913,47.1208738 13.4307625,42.3320795 0.316615971,48.3474005 C0.261064502,48.372789 0.205513033,48.3946756 0.149961563,48.4205018 C-0.171348136,48.5702064 0.0775224471,49.0153804 0.391721558,48.9300225 C0.409498028,48.9252075 0.426385675,48.9256452 0.444606557,48.9173283 C13.369878,42.8923772 27.8821439,47.6912394 37.1427961,57.753398" id="Fill-311"></path>
            <path d="M30.8195532,59.9063138 C31.1310859,60.1146745 31.4239532,59.6165348 31.1141982,59.4099251 C22.9387996,53.9474603 11.4254242,47.3158118 2.12077532,54.3387932 C2.03989238,54.4000758 1.9576762,54.4543546 1.87679326,54.5173881 C1.58259268,54.7480732 1.99811767,55.1525381 2.28965178,54.9244794 C2.29720678,54.9187889 2.30476178,54.9139738 2.31187237,54.9082833 C11.4174248,47.7964422 22.8414734,54.5760443 30.8195532,59.9063138" id="Fill-312"></path>
            <path d="M3.02665004,58.903761 C3.14041945,58.8875648 3.25641092,58.8718065 3.37195797,58.8556104 C8.48935934,58.1486723 15.1782007,57.7026228 18.8517082,61.9083573 C18.9281471,61.9954661 19.0050303,62.0812617 19.0788026,62.1727478 C19.3121188,62.4625268 19.7231997,62.0532468 19.4916612,61.7660942 C19.4441091,61.7070003 19.3938906,61.6527215 19.3454497,61.5958163 C15.5363965,57.0985518 8.49958081,57.5669257 3.14797445,58.3106333 C3.05598122,58.3233276 2.96265475,58.3360218 2.87155034,58.3491538 C2.70845122,58.3723536 2.65201093,58.4922923 2.66623211,58.6152952 C2.67334269,58.6735136 2.69467446,58.7308566 2.73200505,58.7803204 C2.79600034,58.8639273 2.89688181,58.9221457 3.02665004,58.903761" id="Fill-313"></path>
            <path d="M11.9108614,32.4684768 C12.0477403,32.450092 12.1837303,32.4378355 12.3201647,32.4220771 C21.1279612,31.4183564 29.0149367,35.786052 36.2681809,40.2150301 C36.5619371,40.3945005 36.8552488,40.5739708 37.146783,40.7530034 C37.2312212,40.8050936 37.3161038,40.8567461 37.4000977,40.9088362 C37.5920835,41.0265863 37.7716259,40.8939533 37.8182891,40.7271772 C37.8489535,40.6159932 37.8222888,40.4903639 37.6951871,40.4120098 C37.5667521,40.3332179 37.4374282,40.2539883 37.3085488,40.1747587 C30.2255143,35.828512 22.6114077,31.4612541 14.1075887,31.7256446 C13.4547479,31.7457803 12.7965741,31.7939309 12.1326229,31.8709718 C12.0068544,31.885417 11.8819747,31.8967981 11.7557617,31.9134319 C11.6162164,31.9322544 11.5517767,32.0219896 11.5451106,32.1248567 C11.5340003,32.294697 11.681545,32.4986803 11.9108614,32.4684768" id="Fill-314"></path>
            <path d="M54.3598101,9.63657764 C49.0362017,8.87623616 43.5117192,9.59718171 38.3498766,10.9532772 C32.9227203,12.3794099 27.4853424,14.611846 23.1785481,18.2336453 C23.1598828,18.2494037 23.151439,18.2677885 23.1381066,18.2848601 C22.9545646,18.5264884 23.3260928,18.8635425 23.591851,18.6402989 C23.8660531,18.4096138 24.1455881,18.185057 24.4291228,17.965753 C28.5168221,14.8053238 33.5244538,12.8167048 38.5049763,11.5083221 C43.7894765,10.1198344 49.4766137,9.38663234 54.9108807,10.3006179 C54.959766,10.3089349 55.0095401,10.3146254 55.0584254,10.32338 C55.2810757,10.3619005 55.4241763,10.1741132 55.4223986,10.0055862 C55.4215098,9.90709637 55.3672916,9.81954985 55.2513001,9.78321805 C55.2379677,9.77927846 55.2290795,9.77139927 55.2139695,9.76877288 C54.9299904,9.71930909 54.6451224,9.67728677 54.3598101,9.63657764" id="Fill-315"></path>
            <path d="M51.3884358,92.7428093 C51.4684299,92.5987953 51.4408764,92.3751139 51.2373358,92.2950089 C48.9495041,91.3950307 48.8032926,88.4779809 50.9053602,87.2851596 C51.2306697,87.1004365 50.9369135,86.6031722 50.6102708,86.7883331 C48.0575697,88.2372279 48.3437709,91.6830587 50.9866876,92.8045296 C51.0195741,92.818537 51.0484608,92.8364841 51.0817917,92.849616 C51.2253367,92.9060835 51.3324399,92.8434878 51.3884358,92.7428093" id="Fill-316"></path>
            <path d="M66.250929,58.1993402 C70.3097416,59.7891849 73.8232609,62.6703407 75.5262468,66.6939785 C77.1585711,70.5504025 77.0670223,74.9662487 74.7160841,78.4812412 C74.7258612,78.738628 74.7307497,78.9977656 74.724528,79.2599675 C74.724528,79.2669712 74.7209727,79.2713485 74.7205282,79.2779145 C74.8080774,79.2766013 74.8960709,79.2437713 74.9600662,79.1566626 C75.7346759,78.0964743 76.2941903,76.9820072 76.6701626,75.8421515 C76.6674961,75.8163253 76.6621632,75.7909368 76.6670517,75.7620465 C76.9065897,74.2873254 77.0959091,72.7395031 77.2172335,71.1610394 C76.8105967,66.0575154 73.3348524,61.1360881 68.6151996,58.6502048 C59.0585692,53.6167179 48.0487123,56.6633366 38.3867564,59.6723103 C38.2152134,59.7257137 38.1636617,59.8815465 38.1938817,60.0168059 C38.3552031,60.0719602 38.5151914,60.132805 38.6774017,60.1853329 C47.5096409,57.4368101 57.2182601,54.6620233 66.250929,58.1993402" id="Fill-317"></path>
            <path d="M36.6031792,61.2059705 C43.8706446,64.0341606 51.7833959,63.6655898 59.2819555,65.5150099 C66.4285409,67.277759 74.0475361,72.1860543 73.854217,80.3042426 C73.8453287,80.6679983 74.4052875,80.6723757 74.4341743,80.3221896 C74.4346187,80.3156236 74.438174,80.3112463 74.438174,80.3042426 C74.4443958,80.0420408 74.4395072,79.7829031 74.4297302,79.5255163 C74.1710825,72.9258223 68.6368229,68.0744322 62.6328201,65.9155352 C54.82495,63.1074807 46.2553581,63.7702079 38.3910477,61.229608 C38.2288374,61.1770801 38.0688492,61.1162353 37.9075277,61.061081 C37.533333,60.9332631 37.1595827,60.8058829 36.7889433,60.6623066 C36.7787219,60.658367 36.7685004,60.6553029 36.7582789,60.6513633 C36.5765145,60.5804506 36.450746,60.6977629 36.4178595,60.8448411 C36.3880839,60.9805382 36.4369692,61.1416238 36.6031792,61.2059705" id="Fill-318"></path>
            <path d="M18.7954484,63.0278604 C27.29349,67.402122 36.8012351,70.8085568 46.3294231,72.0696644 C56.0860388,73.3605377 66.255513,73.8897564 73.5403105,81.3430289 C73.8016246,81.6100458 74.2140387,81.2029545 73.9536134,80.9363754 C67.3483215,74.1782222 57.6952537,72.5327854 48.6096998,71.7378631 C38.4131165,70.8457641 28.1156517,67.1771274 19.0900934,62.5310339 C18.757229,62.3598805 18.4616952,62.8562692 18.7954484,63.0278604" id="Fill-319"></path>
            <path d="M73.5785462,82.3026861 C73.5283276,82.3018107 73.4781091,82.3009352 73.4278906,82.3000597 C63.2788593,82.0925745 53.1000525,81.9402436 42.9532433,82.3013729 C42.9381333,82.3018107 42.9230233,82.3022484 42.9079133,82.3026861 C42.5328298,82.3162558 42.5310521,82.8914364 42.9079133,82.8778667 C43.3438812,82.8625461 43.7798492,82.852916 44.2162615,82.8393463 C53.7564486,82.5390617 63.3228561,82.671257 72.8639321,82.8638593 C73.1021368,82.8686744 73.3403415,82.8730517 73.5785462,82.8778667 C73.6425415,82.8791799 73.6914268,82.859482 73.7336459,82.8327803 C73.7700876,82.8095805 73.7980856,82.7798146 73.8180841,82.7439206 C73.9122994,82.5753935 73.8354162,82.3079389 73.5785462,82.3026861" id="Fill-320"></path>
            <path d="M76.4680847,76.43573 C76.4987491,76.73689 76.9733809,76.8441345 77.0280435,76.5083936 C77.5084526,73.5523855 77.6302214,70.5320308 77.584447,67.5423173 C77.5364506,64.4317897 77.3809065,61.1220937 76.3800912,58.144199 C74.0127098,51.1002065 66.6065879,46.1709 60.8087921,42.0286366 C60.5039256,41.8106458 60.2119471,42.3096609 60.5137027,42.5250254 C66.2288379,46.6081948 73.8047251,51.6228591 75.9361238,58.6756063 C77.15159,62.6974932 77.3542417,67.349715 77.0151556,71.7546179 C76.8938312,73.3330815 76.7045118,74.8809039 76.4649738,76.3556249 C76.4600853,76.3845153 76.4654182,76.4099038 76.4680847,76.43573" id="Fill-321"></path>
            <path d="M78.7038766,77.5122489 C84.3803479,69.4964901 88.6849202,58.6866842 87.8649805,48.7803584 C87.8347605,48.4135385 87.250359,48.4104744 87.2810234,48.7803584 C88.0929637,58.592134 83.8212779,69.2833143 78.1999136,77.2220322 C77.9843739,77.5262564 78.4901145,77.8142844 78.7038766,77.5122489" id="Fill-322"></path>
        </g>
    </g>
</svg>